<?xml version="1.0" encoding="UTF-8"?>
<svg width="42px" height="42px" viewBox="0 0 42 42" version="1.1" xmlns="http://www.w3.org/2000/svg" xmlns:xlink="http://www.w3.org/1999/xlink">
    <!-- Generator: Sketch 42 (36781) - http://www.bohemiancoding.com/sketch -->
    <title>icon-2</title>
    <desc>Created with Sketch.</desc>
    <defs></defs>
    <g id="Page-1" stroke="none" stroke-width="1" fill="none" fill-rule="evenodd">
        <g id="icon-2" transform="translate(1.000000, 1.000000)" stroke="#007FAD" stroke-width="2">
            <path d="M40,20 C40,31.046 31.046,40 20,40 C8.954,40 0,31.046 0,20 C0,8.954 8.954,0 20,0 C31.046,0 40,8.954 40,20 Z" id="Stroke-1"></path>
            <path d="M14.361,10.2562 L14.361,17.6002 C14.361,19.1742 13.073,20.4632 11.498,20.4632 L11.498,20.4632 C9.923,20.4632 8.635,19.1742 8.635,17.6002 L8.635,10.2562" id="Stroke-3" stroke-linecap="round"></path>
            <path d="M21.8565,30.8132 L21.8565,10.6972 C19.1885,10.6972 18.1435,11.9852 18.1435,13.5602 L18.1435,23.8022 L21.6435,23.8022" id="Stroke-5" stroke-linecap="round"></path>
            <path d="M28.897,21.1247 L28.897,21.1247 C27.08,21.1247 25.593,19.6377 25.593,17.8207 L25.593,13.7597 C25.593,11.9427 27.08,10.4557 28.897,10.4557 L28.897,10.4557 C30.714,10.4557 32.201,11.9427 32.201,13.7597 L32.201,17.8207 C32.201,19.6377 30.714,21.1247 28.897,21.1247 Z" id="Stroke-7"></path>
            <path d="M11.3333,20.6667 L11.3333,30.6667" id="Stroke-9" stroke-linecap="round"></path>
            <path d="M29.3333,21.6667 L29.3333,30.6667" id="Stroke-11" stroke-linecap="round"></path>
            <path d="M11.468,9.8686 L11.468,16.8686" id="Stroke-13" stroke-linecap="round"></path>
        </g>
    </g>
</svg>