<?xml version="1.0" encoding="UTF-8"?>
<svg width="166px" height="24px" viewBox="0 0 166 24" version="1.1" xmlns="http://www.w3.org/2000/svg" xmlns:xlink="http://www.w3.org/1999/xlink">
    <!-- Generator: Sketch 42 (36781) - http://www.bohemiancoding.com/sketch -->
    <title>Page 1</title>
    <desc>Created with Sketch.</desc>
    <defs>
        <polygon id="path-1" points="0 23.3549838 165.759653 23.3549838 165.759653 -0.000259459459 0 -0.000259459459"></polygon>
    </defs>
    <g id="Page-1" stroke="none" stroke-width="1" fill="none" fill-rule="evenodd">
        <g>
            <path d="M54.9074803,17.3959135 C55.1946154,17.3959135 55.4714958,17.3576432 55.7381212,17.2811027 C56.0047467,17.2058595 56.2406077,17.0741838 56.4450633,16.887373 C56.6508008,16.7005622 56.814878,16.4586162 56.9379359,16.1608865 C57.0603529,15.8638054 57.1225228,15.4862919 57.1225228,15.0296432 L57.1225228,14.5723459 L54.8453104,14.9252108 C54.4902371,14.9809946 54.1928471,15.109427 53.9537815,15.3098595 C53.7147158,15.5102919 53.5948625,15.8119135 53.5948625,16.2127784 C53.5948625,16.5176432 53.7038201,16.7900757 53.923017,17.0320216 C54.141573,17.2746162 54.4690865,17.3959135 54.9074803,17.3959135 Z M50.8664378,16.3788324 C50.8664378,15.9221838 50.9452718,15.517427 51.1022988,15.1645622 C51.2599668,14.8116973 51.4753181,14.5035892 51.7489938,14.2408865 C52.0220286,13.9775351 52.3399282,13.7706162 52.7026927,13.6181838 C53.0648162,13.4657514 53.4577042,13.3554811 53.8813568,13.2860757 L56.3630247,12.9124541 C56.6508008,12.8702919 56.8482062,12.7846703 56.9584456,12.6529946 C57.0674031,12.5213189 57.1225228,12.3656432 57.1225228,12.1859676 C57.1225228,11.8259676 56.9815189,11.5152649 56.7020749,11.2512649 C56.421349,10.9892108 55.993851,10.8575351 55.4202216,10.8575351 C54.8177506,10.8575351 54.3569243,11.0235892 54.0358201,11.3550486 C53.7147158,11.6878054 53.5326927,12.0750486 53.4923143,12.517427 L51.0721753,11.9991568 C51.1131946,11.5982919 51.2356116,11.1961297 51.441349,10.7946162 C51.6464456,10.3937514 51.9265305,10.0337514 52.2816039,9.71591351 C52.6373181,9.39742703 53.075071,9.13861622 53.5948625,8.93753514 C54.1146541,8.73645405 54.7158432,8.63656216 55.399712,8.63656216 C56.1925382,8.63656216 56.8693568,8.74358919 57.4301676,8.95829189 C57.9909784,9.17234595 58.4453954,9.45645405 58.7934185,9.80931892 C59.1420826,10.1621838 59.3952486,10.573427 59.5529166,11.0443459 C59.7099436,11.5152649 59.7887776,12.0056432 59.7887776,12.517427 L59.7887776,17.5412108 C59.7887776,17.8175351 59.8022371,18.1120216 59.8297969,18.423373 C59.8573568,18.7340757 59.8842757,18.9799135 59.9118355,19.1602378 L57.409017,19.1602378 C57.3814571,19.0220757 57.3583838,18.831373 57.3378741,18.589427 C57.3173645,18.3474811 57.3071097,18.1295351 57.3071097,17.9355892 C57.0468934,18.3371027 56.6745151,18.6899676 56.1893336,18.9941838 C55.7035112,19.2984 55.0843761,19.4508324 54.33321,19.4508324 C53.7993181,19.4508324 53.3179822,19.3639135 52.8872795,19.191373 C52.4565768,19.0181838 52.0899668,18.7898595 51.7900131,18.5064 C51.4887776,18.2222919 51.2599668,17.8973189 51.1022988,17.5308324 C50.9452718,17.1643459 50.8664378,16.7803459 50.8664378,16.3788324 Z" id="Fill-1" fill="#0481BF"></path>
            <path d="M67.0281722,11.1894486 C66.6724579,11.1894486 66.3417398,11.2517189 66.0334541,11.3762595 C65.7258093,11.5008 65.4559792,11.6843676 65.2239637,11.9263135 C64.9906664,12.1689081 64.8060795,12.4698811 64.6695622,12.8292324 C64.5324039,13.1892324 64.4644656,13.5972324 64.4644656,14.0538811 C64.4644656,14.5105297 64.5324039,14.9191784 64.6695622,15.2785297 C64.8060795,15.6385297 64.994512,15.9427459 65.2335776,16.191827 C65.4726432,16.4409081 65.7463189,16.6277189 66.0539637,16.7522595 C66.3616085,16.8774486 66.6936085,16.9390703 67.0486819,16.9390703 C67.3902958,16.9390703 67.6947359,16.8871784 67.9613614,16.7833946 C68.2279869,16.6796108 68.4567977,16.5446919 68.6484347,16.3786378 C68.8400718,16.2125838 68.9932533,16.025773 69.1099019,15.8182054 C69.2265506,15.6106378 69.3117938,15.4102054 69.3662726,15.2162595 L71.7665429,16.025773 C71.6569444,16.4545297 71.4749212,16.8735568 71.2223961,17.2815568 C70.9692301,17.6895568 70.6449212,18.0566919 70.2481876,18.3816649 C69.8514541,18.7072865 69.3874232,18.9699892 68.8541722,19.1704216 C68.3209212,19.3708541 67.7184502,19.4720432 67.0486819,19.4720432 C66.3103344,19.4720432 65.6162108,19.3371243 64.9669521,19.0672865 C64.3176934,18.7974486 63.753678,18.4199351 63.2755467,17.9353946 C62.7961336,17.4508541 62.4205506,16.8800432 62.1468749,16.2229622 C61.8731992,15.5658811 61.7366819,14.8426378 61.7366819,14.0538811 C61.7366819,13.2651243 61.8699946,12.5386378 62.1366201,11.8744216 C62.4032456,11.2102054 62.7724193,10.6393946 63.2447822,10.1619892 C63.7158633,9.68458378 64.2696239,9.31096216 64.9054232,9.04112432 C65.5418633,8.77128649 66.2282958,8.63636757 66.9666432,8.63636757 C67.650512,8.63636757 68.261956,8.73690811 68.8028981,8.93734054 C69.3419174,9.13842162 69.8104347,9.39723243 70.2071683,9.71636757 C70.6039019,10.0342054 70.9250062,10.4006919 71.171122,10.815827 C71.4178788,11.2309622 71.5947745,11.6532324 71.704373,12.0819892 L69.2637243,12.9122595 C69.1406664,12.4835027 68.9054463,12.0891243 68.5561413,11.7291243 C68.2074772,11.3691243 67.6979405,11.1894486 67.0281722,11.1894486" id="Fill-3" fill="#0481BF"></path>
            <path d="M77.1390463,8.94765405 L79.1701429,8.94765405 L79.1701429,11.3969514 L77.1390463,11.3969514 L77.1390463,15.6728432 C77.1390463,16.1158703 77.23839,16.4233297 77.4370772,16.5965189 C77.6344826,16.7703568 77.9318726,16.8559784 78.3286062,16.8559784 C78.4926834,16.8559784 78.6567606,16.8494919 78.8208378,16.8352216 C78.985556,16.8216 79.1015637,16.8008432 79.1701429,16.7729514 L79.1701429,19.0561946 C79.0470849,19.1119784 78.8586525,19.1671135 78.6054865,19.2222486 C78.3529614,19.2773838 78.0280116,19.3052757 77.6319189,19.3052757 C76.6468147,19.3052757 75.8680888,19.0289514 75.2931776,18.4750054 C74.7195483,17.9217081 74.4317722,17.1472216 74.4317722,16.1502486 L74.4317722,11.3969514 L72.6070541,11.3969514 L72.6070541,8.94765405 L73.1197954,8.94765405 C73.6530463,8.94765405 74.0459344,8.79197838 74.2984595,8.48062703 C74.5516255,8.16927568 74.677888,7.78527568 74.677888,7.32862703 L74.677888,5.89641081 L77.1390463,5.89641081 L77.1390463,8.94765405 Z" id="Fill-5" fill="#0481BF"></path>
            <mask id="mask-2" fill="white">
                <use xlink:href="#path-1"></use>
            </mask>
            <g id="Clip-8"></g>
            <path d="M81.4874131,19.160173 L84.2151969,19.160173 L84.2151969,8.94784865 L81.4874131,8.94784865 L81.4874131,19.160173 Z M81.1586178,5.60536216 C81.1586178,5.12147027 81.322695,4.71282162 81.6508494,4.38136216 C81.9790039,4.04925405 82.3750965,3.8832 82.8404093,3.8832 C83.3191815,3.8832 83.7191197,4.04925405 84.0402239,4.38136216 C84.3613282,4.71282162 84.5222008,5.12147027 84.5222008,5.60536216 C84.5222008,6.06201081 84.3613282,6.45703784 84.0402239,6.78914595 C83.7191197,7.12125405 83.3191815,7.28730811 82.8404093,7.28730811 C82.3750965,7.28730811 81.9790039,7.12125405 81.6508494,6.78914595 C81.322695,6.45703784 81.1586178,6.06201081 81.1586178,5.60536216 L81.1586178,5.60536216 Z" id="Fill-7" fill="#0481BF" mask="url(#mask-2)"></path>
            <polygon id="Fill-9" fill="#0481BF" mask="url(#mask-2)" points="92.7259336 19.1600432 89.9981498 19.1600432 85.8757097 8.94771892 88.8701189 8.94771892 91.3729375 15.7974486 93.7719259 8.94771892 96.6432772 8.94771892"></polygon>
            <path d="M104.498602,12.8915027 C104.485143,12.6424216 104.433228,12.3965838 104.34478,12.1546378 C104.255691,11.9126919 104.119174,11.6979892 103.934587,11.5111784 C103.75,11.3243676 103.517344,11.1725838 103.237259,11.0545297 C102.957174,10.9371243 102.625174,10.8780973 102.242541,10.8780973 C101.886826,10.8780973 101.572772,10.9403676 101.299097,11.0649081 C101.025421,11.1894486 100.793405,11.3483676 100.601768,11.5423135 C100.410131,11.7362595 100.263359,11.9509622 100.160811,12.185773 C100.058263,12.4212324 99.9999382,12.6566919 99.9864788,12.8915027 L104.498602,12.8915027 Z M107.041799,16.2333405 C106.918741,16.6763676 106.7239,17.0947459 106.457274,17.4891243 C106.190649,17.8835027 105.865699,18.2259892 105.483066,18.5165838 C105.099792,18.8071784 104.652425,19.0393946 104.139683,19.2119351 C103.626942,19.3851243 103.062927,19.4720432 102.447637,19.4720432 C101.750309,19.4720432 101.08695,19.3500973 100.458201,19.1081514 C99.8294517,18.8662054 99.2756911,18.5094486 98.7969189,18.039827 C98.3181467,17.5689081 97.9387181,16.9942054 97.6586332,16.3163676 C97.3785483,15.6385297 97.2381853,14.8705297 97.2381853,14.0130162 C97.2381853,13.1963676 97.3747027,12.4556108 97.6483784,11.7913946 C97.9214131,11.1271784 98.2873822,10.5635027 98.7456448,10.0997189 C99.2032664,9.63593514 99.7333127,9.27658378 100.335143,9.02036757 C100.936332,8.7648 101.558672,8.63636757 102.201521,8.63636757 C103.773714,8.63636757 104.997243,9.10728649 105.872749,10.047827 C106.747614,10.9890162 107.185367,12.2830703 107.185367,13.9293405 C107.185367,14.1232865 107.178317,14.3068541 107.164857,14.4793946 C107.151398,14.6525838 107.144347,14.7524757 107.144347,14.7803676 L99.9249498,14.7803676 C99.9384093,15.1124757 100.017243,15.4205838 100.160811,15.7040432 C100.304378,15.9875027 100.488965,16.2333405 100.714571,16.4409081 C100.940178,16.6484757 101.202958,16.8112865 101.504193,16.9286919 C101.804788,17.0460973 102.126533,17.1051243 102.468147,17.1051243 C103.110996,17.1051243 103.612842,16.959827 103.975606,16.6692324 C104.33773,16.3786378 104.601151,16.0050162 104.765228,15.5483676 L107.041799,16.2333405 Z" id="Fill-10" fill="#0481BF" mask="url(#mask-2)"></path>
            <path d="M112.066408,19.1600432 L109.338624,19.1600432 L109.338624,4.13215135 L112.066408,4.13215135 L112.066408,9.79874595 C112.394562,9.39723243 112.811164,9.11052973 113.317497,8.93734054 C113.822547,8.7648 114.315419,8.67788108 114.794192,8.67788108 C115.4364,8.67788108 115.994006,8.78555676 116.465087,8.99961081 C116.93745,9.21431351 117.327134,9.50101622 117.634778,9.86101622 C117.942423,10.2210162 118.170593,10.649773 118.321852,11.1479351 C118.471829,11.6460973 118.546817,12.1721514 118.546817,12.7254486 L118.546817,19.1600432 L115.819033,19.1600432 L115.819033,13.2028541 C115.819033,12.6216649 115.672261,12.137773 115.378717,11.7498811 C115.084531,11.3626378 114.609605,11.1686919 113.952655,11.1686919 C113.379025,11.1686919 112.927813,11.3593946 112.599659,11.7395027 C112.270863,12.1202595 112.093327,12.5944216 112.066408,13.1613405 L112.066408,19.1600432 Z" id="Fill-11" fill="#0481BF" mask="url(#mask-2)"></path>
            <path d="M124.741565,17.3959135 C125.0287,17.3959135 125.305581,17.3576432 125.572206,17.2811027 C125.838832,17.2058595 126.074693,17.0741838 126.279148,16.887373 C126.484886,16.7005622 126.648963,16.4586162 126.772021,16.1608865 C126.894438,15.8638054 126.956608,15.4862919 126.956608,15.0296432 L126.956608,14.5723459 L124.679395,14.9252108 C124.324322,14.9809946 124.026932,15.109427 123.787866,15.3098595 C123.548801,15.5102919 123.428947,15.8119135 123.428947,16.2127784 C123.428947,16.5176432 123.537905,16.7900757 123.757102,17.0320216 C123.975658,17.2746162 124.303171,17.3959135 124.741565,17.3959135 M120.700523,16.3788324 C120.700523,15.9221838 120.779357,15.517427 120.936384,15.1645622 C121.094052,14.8116973 121.309403,14.5035892 121.583079,14.2408865 C121.856114,13.9775351 122.174013,13.7706162 122.536778,13.6181838 C122.898901,13.4657514 123.291789,13.3554811 123.715442,13.2860757 L126.19711,12.9124541 C126.484886,12.8702919 126.682291,12.7846703 126.792531,12.6529946 C126.901488,12.5213189 126.956608,12.3656432 126.956608,12.1859676 C126.956608,11.8259676 126.815604,11.5152649 126.53616,11.2512649 C126.255434,10.9892108 125.827936,10.8575351 125.254307,10.8575351 C124.651836,10.8575351 124.191009,11.0235892 123.869905,11.3550486 C123.548801,11.6878054 123.366778,12.0750486 123.326399,12.517427 L120.90626,11.9991568 C120.94728,11.5982919 121.069697,11.1961297 121.275434,10.7946162 C121.480531,10.3937514 121.760615,10.0337514 122.115689,9.71591351 C122.471403,9.39742703 122.909156,9.13861622 123.428947,8.93753514 C123.948739,8.73645405 124.549928,8.63656216 125.233797,8.63656216 C126.026623,8.63656216 126.703442,8.74358919 127.264253,8.95829189 C127.825063,9.17234595 128.27948,9.45645405 128.627503,9.80931892 C128.976168,10.1621838 129.229334,10.573427 129.387002,11.0443459 C129.544029,11.5152649 129.622863,12.0056432 129.622863,12.517427 L129.622863,17.5412108 C129.622863,17.8175351 129.636322,18.1120216 129.663882,18.423373 C129.691442,18.7340757 129.718361,18.9799135 129.74592,19.1602378 L127.243102,19.1602378 C127.215542,19.0220757 127.192469,18.831373 127.171959,18.589427 C127.151449,18.3474811 127.141195,18.1295351 127.141195,17.9355892 C126.880978,18.3371027 126.5086,18.6899676 126.023419,18.9941838 C125.537596,19.2984 124.918461,19.4508324 124.167295,19.4508324 C123.633403,19.4508324 123.152067,19.3639135 122.721364,19.191373 C122.290662,19.0181838 121.924052,18.7898595 121.624098,18.5064 C121.322863,18.2222919 121.094052,17.8973189 120.936384,17.5308324 C120.779357,17.1643459 120.700523,16.7803459 120.700523,16.3788324" id="Fill-12" fill="#0481BF" mask="url(#mask-2)"></path>
            <path d="M140.041189,14.0329297 C140.041189,13.0923892 139.798278,12.3756324 139.312456,11.8846054 C138.827274,11.394227 138.23634,11.1483892 137.539012,11.1483892 C137.197398,11.1483892 136.872448,11.2100108 136.564803,11.3345514 C136.257158,11.4590919 135.990533,11.6426595 135.764927,11.8846054 C135.53932,12.1272 135.357297,12.4275243 135.22078,12.7875243 C135.084903,13.148173 135.016324,13.5626595 135.016324,14.0329297 C135.016324,14.4895784 135.084903,14.898227 135.22078,15.258227 C135.357297,15.6175784 135.53932,15.9217946 135.764927,16.1708757 C135.990533,16.4206054 136.257158,16.6106595 136.564803,16.7423351 C136.872448,16.8733622 137.197398,16.9388757 137.539012,16.9388757 C138.23634,16.9388757 138.827274,16.6904432 139.312456,16.1916324 C139.798278,15.6941189 140.041189,14.9741189 140.041189,14.0329297 L140.041189,14.0329297 Z M132.370579,19.1598486 L132.370579,4.13195676 L135.057344,4.13195676 L135.057344,10.0690378 C135.289359,9.70903784 135.669429,9.38730811 136.195629,9.1032 C136.721189,8.81974054 137.360834,8.67768649 138.113282,8.67768649 C138.851629,8.67768649 139.507938,8.81260541 140.081568,9.08244324 C140.656479,9.35228108 141.145506,9.7259027 141.548649,10.2039568 C141.951151,10.6807135 142.256232,11.2450378 142.460687,11.8949838 C142.666425,12.5455784 142.768973,13.2513081 142.768973,14.0128216 C142.768973,14.7873081 142.65617,15.5040649 142.430564,16.1604973 C142.204958,16.818227 141.883212,17.3890378 141.46661,17.8729297 C141.049367,18.3574703 140.54688,18.7343351 139.959151,19.004173 C139.37078,19.2740108 138.72088,19.4089297 138.010734,19.4089297 C137.313405,19.4089297 136.708371,19.2707676 136.195629,18.9937946 C135.682888,18.7174703 135.289359,18.3574703 135.016324,17.9144432 L135.016324,19.1598486 L132.370579,19.1598486 Z" id="Fill-13" fill="#0481BF" mask="url(#mask-2)"></path>
            <path d="M144.922486,19.160173 L147.65027,19.160173 L147.65027,8.94784865 L144.922486,8.94784865 L144.922486,19.160173 Z M144.594332,5.60536216 C144.594332,5.12147027 144.757768,4.71282162 145.086564,4.38136216 C145.414718,4.04925405 145.810811,3.8832 146.276124,3.8832 C146.754896,3.8832 147.154834,4.04925405 147.475938,4.38136216 C147.797042,4.71282162 147.957915,5.12147027 147.957915,5.60536216 C147.957915,6.06201081 147.797042,6.45703784 147.475938,6.78914595 C147.154834,7.12125405 146.754896,7.28730811 146.276124,7.28730811 C145.810811,7.28730811 145.414718,7.12125405 145.086564,6.78914595 C144.757768,6.45703784 144.594332,6.06201081 144.594332,5.60536216 L144.594332,5.60536216 Z" id="Fill-14" fill="#0481BF" mask="url(#mask-2)"></path>
            <path d="M153.926288,8.94765405 L155.957385,8.94765405 L155.957385,11.3969514 L153.926288,11.3969514 L153.926288,15.6728432 C153.926288,16.1158703 154.025632,16.4233297 154.224319,16.5965189 C154.421724,16.7703568 154.719114,16.8559784 155.115848,16.8559784 C155.279925,16.8559784 155.444002,16.8494919 155.60808,16.8352216 C155.772798,16.8216 155.888805,16.8008432 155.957385,16.7729514 L155.957385,19.0561946 C155.834327,19.1119784 155.645894,19.1671135 155.392728,19.2222486 C155.140203,19.2773838 154.815253,19.3052757 154.419161,19.3052757 C153.434056,19.3052757 152.655331,19.0289514 152.080419,18.4750054 C151.50679,17.9217081 151.219014,17.1472216 151.219014,16.1502486 L151.219014,11.3969514 L149.394296,11.3969514 L149.394296,8.94765405 L149.907037,8.94765405 C150.440288,8.94765405 150.833176,8.79197838 151.085701,8.48062703 C151.338867,8.16927568 151.46513,7.78527568 151.46513,7.32862703 L151.46513,5.89641081 L153.926288,5.89641081 L153.926288,8.94765405 Z" id="Fill-15" fill="#0481BF" mask="url(#mask-2)"></path>
            <path d="M159.976251,15.7977081 C160.00317,16.198573 160.167247,16.558573 160.468483,16.8770595 C160.769077,17.1948973 161.219649,17.3538162 161.82212,17.3538162 C162.273332,17.3538162 162.607896,17.2539243 162.827093,17.0534919 C163.045649,16.8530595 163.155247,16.6143568 163.155247,16.3373838 C163.155247,16.1019243 163.073208,15.8976 162.909131,15.7250595 C162.745054,15.5518703 162.464969,15.4240865 162.068236,15.3410595 L160.735108,15.0290595 C159.750004,14.8085189 159.032166,14.4245189 158.581595,13.8777081 C158.130382,13.3308973 157.904776,12.6978162 157.904776,11.9778162 C157.904776,11.5211676 158.000274,11.0891676 158.191911,10.6805189 C158.383548,10.2725189 158.646328,9.91965405 158.981533,9.62192432 C159.316737,9.32484324 159.71283,9.08614054 160.171093,8.90646486 C160.629355,8.72678919 161.131842,8.63662703 161.678552,8.63662703 C162.38934,8.63662703 162.99117,8.73651892 163.483402,8.9376 C163.975633,9.13803243 164.375571,9.39100541 164.683216,9.69522162 C164.990861,10.0000865 165.219672,10.3211676 165.37029,10.6604108 C165.520266,10.9996541 165.609355,11.3071135 165.636915,11.5840865 L163.360344,12.1030054 C163.332784,11.950573 163.28856,11.7948973 163.227031,11.6359784 C163.165502,11.4770595 163.066158,11.3278703 162.929,11.1897081 C162.793124,11.0515459 162.625201,10.940627 162.427154,10.8576 C162.229108,10.774573 161.986197,10.7324108 161.699062,10.7324108 C161.343347,10.7324108 161.038907,10.8297081 160.786382,11.0236541 C160.533216,11.2169514 160.406954,11.4595459 160.406954,11.7501405 C160.406954,11.9992216 160.492197,12.1996541 160.663324,12.3520865 C160.833811,12.5045189 161.056212,12.6083027 161.329888,12.6634378 L162.765564,12.9741405 C163.763486,13.1823568 164.512089,13.5696 165.01073,14.1365189 C165.510653,14.7040865 165.759332,15.3611676 165.759332,16.1084108 C165.759332,16.5235459 165.680498,16.9321946 165.524112,17.3330595 C165.366444,17.734573 165.124174,18.094573 164.796019,18.4124108 C164.467865,18.7308973 164.057672,18.9871135 163.56544,19.1810595 C163.073208,19.3743568 162.498938,19.4716541 161.842629,19.4716541 C161.076722,19.4716541 160.433873,19.3600865 159.914722,19.1388973 C159.394931,18.9183568 158.971278,18.6485189 158.643124,18.3293838 C158.314969,18.0115459 158.072058,17.6690595 157.915031,17.3019243 C157.757363,16.9360865 157.66571,16.6072216 157.638151,16.316627 L159.976251,15.7977081 Z" id="Fill-16" fill="#0481BF" mask="url(#mask-2)"></path>
            <path d="M4.32625483,17.8642378 L0.640926641,17.8642378 C0.288416988,17.8642378 0,17.5723459 0,17.2155892 L0,13.4858595 C0,13.1291027 0.288416988,12.8372108 0.640926641,12.8372108 L4.32625483,12.8372108 C4.67876448,12.8372108 4.96718147,13.1291027 4.96718147,13.4858595 L4.96718147,17.2155892 C4.96718147,17.5723459 4.67876448,17.8642378 4.32625483,17.8642378" id="Fill-17" fill="#0481BF" mask="url(#mask-2)"></path>
            <path d="M10.7354571,23.3210595 L7.05012896,23.3210595 C6.69761931,23.3210595 6.40920232,23.0291676 6.40920232,22.6724108 L6.40920232,7.96105946 C6.40920232,7.6043027 6.69761931,7.31241081 7.05012896,7.31241081 L10.7354571,7.31241081 C11.0879668,7.31241081 11.3763838,7.6043027 11.3763838,7.96105946 L11.3763838,22.6724108 C11.3763838,23.0291676 11.0879668,23.3210595 10.7354571,23.3210595" id="Fill-18" fill="#0481BF" mask="url(#mask-2)"></path>
            <path d="M40.4296525,17.898227 L44.1149807,17.898227 C44.4674903,17.898227 44.7559073,17.6063351 44.7559073,17.2495784 L44.7559073,13.5198486 C44.7559073,13.1630919 44.4674903,12.8712 44.1149807,12.8712 L40.4296525,12.8712 C40.0771429,12.8712 39.7887259,13.1630919 39.7887259,13.5198486 L39.7887259,17.2495784 C39.7887259,17.6063351 40.0771429,17.898227 40.4296525,17.898227" id="Fill-19" fill="#0481BF" mask="url(#mask-2)"></path>
            <path d="M34.0205143,23.3549838 L37.7058425,23.3549838 C38.0583521,23.3549838 38.3467691,23.0630919 38.3467691,22.7063351 L38.3467691,7.99498378 C38.3467691,7.63822703 38.0583521,7.34633514 37.7058425,7.34633514 L34.0205143,7.34633514 C33.6680046,7.34633514 33.3795876,7.63822703 33.3795876,7.99498378 L33.3795876,22.7063351 C33.3795876,23.0630919 33.6680046,23.3549838 34.0205143,23.3549838" id="Fill-20" fill="#0481BF" mask="url(#mask-2)"></path>
            <path d="M31.3795761,23.2423135 L28.8158695,23.2423135 C28.462078,23.2423135 28.208271,23.2488 28.208271,22.8907459 L28.208271,5.78393514 C28.208271,5.62307027 28.1044409,5.43885405 27.9980471,5.3195027 L26.2899776,3.49615135 C26.1682015,3.35993514 25.9874602,3.13420541 25.806078,3.13420541 L19.3923251,3.13420541 C19.2250432,3.13420541 19.0648116,3.34890811 18.9449583,3.46696216 L17.3612286,5.24490811 C17.2375297,5.3675027 17.3125181,5.6088 17.3125181,5.78393514 L17.3125181,22.8907459 C17.3125181,23.2488 16.7363251,23.2423135 16.3825336,23.2423135 L13.818827,23.2423135 C13.4650355,23.2423135 13.4669583,23.2488 13.4669583,22.8907459 L13.4669583,4.28036757 C13.4669583,4.12663784 13.3765876,3.97744865 13.4752903,3.86004324 L16.4600857,0.228259459 C16.5825027,0.0823135135 16.7260703,-0.000713513514 16.9145027,-6.48648649e-05 L28.3473521,0.0420972973 C28.5601398,0.0427459459 28.7107575,0.150421622 28.829329,0.329448649 L31.8980857,3.93982703 C31.9692286,4.04685405 32.0538309,4.17269189 32.0538309,4.30112432 L32.0538309,22.8907459 C32.0538309,23.2488 31.7333676,23.2423135 31.3795761,23.2423135" id="Fill-21" fill="#0481BF" mask="url(#mask-2)"></path>
            <path d="M25.754868,17.4318486 L19.1879336,17.4318486 C18.7341575,17.4318486 18.3637019,17.0562811 18.3637019,16.5976865 L18.3637019,13.2389838 C18.3637019,12.7803892 18.7341575,12.4048216 19.1879336,12.4048216 L25.754868,12.4048216 C26.2080031,12.4048216 26.5790996,12.7803892 26.5790996,13.2389838 L26.5790996,16.5976865 C26.5790996,17.0562811 26.2080031,17.4318486 25.754868,17.4318486" id="Fill-22" fill="#0481BF" mask="url(#mask-2)"></path>
        </g>
    </g>
</svg>