<?xml version="1.0" encoding="UTF-8"?>
<svg width="261px" height="122px" viewBox="0 0 261 122" version="1.1" xmlns="http://www.w3.org/2000/svg" xmlns:xlink="http://www.w3.org/1999/xlink">
    <!-- Generator: Sketch 42 (36781) - http://www.bohemiancoding.com/sketch -->
    <title>Group 4</title>
    <desc>Created with Sketch.</desc>
    <defs>
        <linearGradient x1="0%" y1="50%" x2="100%" y2="50%" id="linearGradient-1">
            <stop stop-color="#138F96" offset="0%"></stop>
            <stop stop-color="#186776" offset="100%"></stop>
        </linearGradient>
        <path d="M36.4811258,72.9869254 C16.2417486,72.4646909 0,56.3640076 0,36.5786657 C0,16.4637881 16.7872845,0.157331343 37.4956897,0.157331343 C58.2040948,0.157331343 74.9913793,16.4637881 74.9913793,36.5786657 C74.9913793,56.3640076 58.7496307,72.4646909 38.5102535,72.9869254 L36.4811258,72.9869254 L36.4811258,72.9869254 L36.4811258,72.9869254 Z M56.7064655,56.8314806 L41.7909483,56.8314806 C40.8991379,56.8314806 40.1560345,56.1677254 40.081681,55.3043642 L38.9625,42.3099284 C38.8814655,41.4522328 38.1409483,40.7958866 37.2543103,40.7958866 L37.2006466,40.7958866 C36.3045259,40.7958866 35.5594828,41.4659612 35.4905172,42.3336806 L34.5903017,55.7574 C34.5002155,56.3736507 33.9573276,56.8314806 33.3165948,56.8314806 L18.2818966,56.8314806 C17.5163793,56.8314806 16.4915948,56.1862478 16.5743534,55.4470955 L18.4446121,38.8298985 C18.5372845,38.0081582 19.2517241,37.385806 20.1028017,37.385806 L20.530819,37.385806 L21.4174569,37.3855881 L23.3834052,24.8426627 C23.4474138,24.4358239 24.25,24.1353254 24.6737069,24.1353254 L25.1025862,24.1353254 C25.5762931,24.1353254 25.9601293,23.7622627 25.9601293,23.3022537 L25.9601293,17.9917761 C25.9601293,17.0715403 26.7280172,16.3256328 27.675431,16.3256328 L33.9019397,16.3256328 C34.8491379,16.3256328 35.6170259,17.0715403 35.6170259,17.9917761 L35.6170259,32.2862657 C35.6170259,33.436397 36.4834052,33.8517343 37.1209052,33.8613224 C37.7226293,33.8704746 38.6008621,33.436397 38.6008621,32.2862657 L38.6008621,17.9917761 C38.6008621,17.0715403 39.36875,16.3256328 40.3159483,16.3256328 L46.4353448,16.3256328 C47.3825431,16.3256328 48.1506466,17.0715403 48.1506466,17.9917761 L48.1506466,23.3022537 C48.0165948,24.3174985 49.1153017,24.1353254 49.1153017,24.1353254 L49.4864224,24.1353254 C49.9239224,24.1353254 50.3034483,24.4286328 50.4017241,24.8424448 L53.6978448,37.3596567 L54.9094828,37.3596567 C55.7663793,37.3596567 56.4920259,38.390591 56.6086207,39.2151642 L58.4075431,54.9530925 C58.5394397,55.9493791 57.7405172,56.8314806 56.7064655,56.8314806 L56.7064655,56.8314806 Z" id="path-2"></path>
    </defs>
    <g id="Page-1" stroke="none" stroke-width="1" fill="none" fill-rule="evenodd">
        <g id="Group-4" transform="translate(-1.000000, 0.000000)">
            <text id="adventure-squad" font-family="FilsonProRegular, Filson Pro" font-size="32" font-weight="normal" fill="#3A3D3E">
                <tspan x="0.016" y="114">adventure squad</tspan>
            </text>
            <g id="Group" transform="translate(95.000000, 0.000000)">
                <rect id="Rectangle-4" fill="#FFFFFF" x="12.9098361" y="12.3728814" width="49.795082" height="49.4915254"></rect>
                <g id="Untitled-2">
                    <mask id="mask-3" fill="white">
                        <use xlink:href="#path-2"></use>
                    </mask>
                    <use id="Clip-2" fill="url(#linearGradient-1)" xlink:href="#path-2"></use>
                    <text id="138f96" mask="url(#mask-3)" font-family="ProximaNova-Regular, Proxima Nova" font-size="3.65778689" font-weight="normal" fill="#7F878A">
                        <tspan x="29.0948276" y="53.7731343">138f96</tspan>
                    </text>
                </g>
            </g>
        </g>
    </g>
</svg>