<?xml version="1.0" encoding="UTF-8"?>
<svg width="216px" height="70px" viewBox="0 0 216 70" version="1.1" xmlns="http://www.w3.org/2000/svg" xmlns:xlink="http://www.w3.org/1999/xlink">
    <!-- Generator: Sketch 42 (36781) - http://www.bohemiancoding.com/sketch -->
    <title>Page 1</title>
    <desc>Created with Sketch.</desc>
    <defs>
        <polygon id="path-1" points="217.670604 79.8660532 217.670604 0.000358208955 0 0.000358208955 0 39.9332057 0 79.8660532 217.670604 79.8660532"></polygon>
    </defs>
    <g id="Page-1" stroke="none" stroke-width="1" fill="none" fill-rule="evenodd">
        <g transform="translate(-1.000000, 0.000000)">
            <mask id="mask-2" fill="white">
                <use xlink:href="#path-1"></use>
            </mask>
            <g id="Clip-1"></g>
            <text id="activehabits" mask="url(#mask-2)" font-family="Circular-Bold, Circular" font-size="38.4" font-weight="bold" letter-spacing="-0.0768000036" fill="#FFFFFF">
                <tspan x="0" y="68.9108293">a</tspan>
                <tspan x="20.544" y="68.9108293">c</tspan>
                <tspan x="41.664" y="68.9108293" letter-spacing="0.115200001">t</tspan>
                <tspan x="56.2176" y="68.9108293">i</tspan>
                <tspan x="66.7776" y="68.9108293" letter-spacing="-0.579840016">v</tspan>
                <tspan x="86.54976" y="68.9108293">ehabi</tspan>
                <tspan x="184.96896" y="68.9108293" letter-spacing="0.537600017">t</tspan>
                <tspan x="200.36736" y="68.9108293">s</tspan>
            </text>
            <g id="Group-3" mask="url(#mask-2)" fill="#FFFFFF">
                <g transform="translate(65.879121, 0.000000)">
                    <path d="M9.22092088,32.7071045 L2.33355824,32.7071045 C1.67356923,32.7071045 1.13575604,32.169791 1.13575604,31.5130746 L1.13575604,24.647403 C1.13575604,23.9906866 1.67356923,23.4533731 2.33355824,23.4533731 L9.22092088,23.4533731 C9.87971209,23.4533731 10.4187231,23.9906866 10.4187231,24.647403 L10.4187231,31.5130746 C10.4187231,32.169791 9.87971209,32.7071045 9.22092088,32.7071045" id="Fill-2"></path>
                    <path d="M21.1978648,42.751403 L14.3105022,42.751403 C13.651711,42.751403 13.1127,42.2152836 13.1127,41.5573731 L13.1127,14.4767761 C13.1127,13.8212537 13.651711,13.2827463 14.3105022,13.2827463 L21.1978648,13.2827463 C21.8578538,13.2827463 22.395667,13.8212537 22.395667,14.4767761 L22.395667,41.5573731 C22.395667,42.2152836 21.8578538,42.751403 21.1978648,42.751403" id="Fill-3"></path>
                    <path d="M77.8910407,32.7701493 L84.7784033,32.7701493 C85.4371945,32.7701493 85.9762055,32.2328358 85.9762055,31.5761194 L85.9762055,24.7104478 C85.9762055,24.0525373 85.4371945,23.5164179 84.7784033,23.5164179 L77.8910407,23.5164179 C77.2310516,23.5164179 76.6932385,24.0525373 76.6932385,24.7104478 L76.6932385,31.5761194 C76.6932385,32.2328358 77.2310516,32.7701493 77.8910407,32.7701493" id="Fill-4"></path>
                    <path d="M65.9130187,42.8144478 L72.8003813,42.8144478 C73.4591725,42.8144478 73.9981835,42.2771343 73.9981835,41.6204179 L73.9981835,14.5398209 C73.9981835,13.8842985 73.4591725,13.345791 72.8003813,13.345791 L65.9130187,13.345791 C65.2530297,13.345791 64.7152165,13.8842985 64.7152165,14.5398209 L64.7152165,41.6204179 C64.7152165,42.2771343 65.2530297,42.8144478 65.9130187,42.8144478" id="Fill-5"></path>
                    <path d="M59.7789538,43.5770746 L54.9877451,43.5770746 C54.3265582,43.5770746 54.3014044,42.7973731 54.3014044,42.1370746 L54.3014044,10.6469254 C54.3014044,10.350806 53.8833714,10.0117015 53.6833385,9.792 L50.3786022,6.832 C50.1522176,6.58244776 49.701844,6.56214925 49.3640637,6.56214925 L37.3764593,6.56214925 C37.063833,6.56214925 36.7643824,6.56095522 36.5415912,6.77826866 L33.2069099,9.85408955 C32.9757341,10.0773731 32.7409648,10.3245373 32.7409648,10.6469254 L32.7409648,42.1370746 C32.7409648,42.7973731 32.412767,43.5770746 31.752778,43.5770746 L26.9615692,43.5770746 C26.2991846,43.5770746 25.5541516,42.7973731 25.5541516,42.1370746 L25.5541516,7.88035821 C25.5541516,7.5961791 25.7601736,7.32155224 25.9446352,7.10543284 L31.7096571,0.418865672 C31.9384374,0.152597015 32.3001736,-0.00143283582 32.6535253,-0.00023880597 L54.0654374,0.0773731343 C54.4643055,0.0785671642 54.7673495,0.276776119 54.9889429,0.606328358 L60.9611846,7.25229851 C61.0941407,7.44931343 61.4882176,7.68095522 61.4882176,7.91737313 L61.4882176,42.1370746 C61.4882176,42.7973731 60.4413385,43.5770746 59.7789538,43.5770746" id="Fill-6"></path>
                    <path d="M49.2677604,31.9106866 L36.9950791,31.9106866 C36.1470352,31.9106866 35.4547055,31.2205373 35.4547055,30.3751642 L35.4547055,24.1924776 C35.4547055,23.3482985 36.1470352,22.6569552 36.9950791,22.6569552 L49.2677604,22.6569552 C50.1146066,22.6569552 50.8081341,23.3482985 50.8081341,24.1924776 L50.8081341,30.3751642 C50.8081341,31.2205373 50.1146066,31.9106866 49.2677604,31.9106866" id="Fill-7"></path>
                </g>
            </g>
        </g>
    </g>
</svg>