<?xml version="1.0" encoding="UTF-8"?>
<svg width="340px" height="173px" viewBox="0 0 340 173" version="1.1" xmlns="http://www.w3.org/2000/svg" xmlns:xlink="http://www.w3.org/1999/xlink">
    <!-- Generator: Sketch 42 (36781) - http://www.bohemiancoding.com/sketch -->
    <title>Group 3</title>
    <desc>Created with Sketch.</desc>
    <defs>
        <rect id="path-1" x="0" y="0" width="346" height="185"></rect>
    </defs>
    <g id="Page-1" stroke="none" stroke-width="1" fill="none" fill-rule="evenodd">
        <g id="Group-3" transform="translate(-6.000000, -12.000000)">
            <mask id="mask-2" fill="white">
                <use xlink:href="#path-1"></use>
            </mask>
            <g id="Mask"></g>
            <g opacity="0.04" mask="url(#mask-2)" fill="#FFFFFF">
                <g transform="translate(2.000000, 12.000000)">
                    <path d="M38.491,136.961 L9.741,136.961 C6.986,136.961 4.741,134.711 4.741,131.961 L4.741,103.211 C4.741,100.461 6.986,98.211 9.741,98.211 L38.491,98.211 C41.241,98.211 43.491,100.461 43.491,103.211 L43.491,131.961 C43.491,134.711 41.241,136.961 38.491,136.961" id="Fill-2"></path>
                    <path d="M88.4865,179.0215 L59.7365,179.0215 C56.9865,179.0215 54.7365,176.7765 54.7365,174.0215 L54.7365,60.6215 C54.7365,57.8765 56.9865,55.6215 59.7365,55.6215 L88.4865,55.6215 C91.2415,55.6215 93.4865,57.8765 93.4865,60.6215 L93.4865,174.0215 C93.4865,176.7765 91.2415,179.0215 88.4865,179.0215" id="Fill-3"></path>
                    <path d="M325.1415,137.225 L353.8915,137.225 C356.6415,137.225 358.8915,134.975 358.8915,132.225 L358.8915,103.475 C358.8915,100.72 356.6415,98.475 353.8915,98.475 L325.1415,98.475 C322.3865,98.475 320.1415,100.72 320.1415,103.475 L320.1415,132.225 C320.1415,134.975 322.3865,137.225 325.1415,137.225" id="Fill-4"></path>
                    <path d="M275.1415,179.2855 L303.8915,179.2855 C306.6415,179.2855 308.8915,177.0355 308.8915,174.2855 L308.8915,60.8855 C308.8915,58.1405 306.6415,55.8855 303.8915,55.8855 L275.1415,55.8855 C272.3865,55.8855 270.1415,58.1405 270.1415,60.8855 L270.1415,174.2855 C270.1415,177.0355 272.3865,179.2855 275.1415,179.2855" id="Fill-5"></path>
                    <path d="M249.536,182.479 L229.536,182.479 C226.776,182.479 226.671,179.214 226.671,176.449 L226.671,44.584 C226.671,43.344 224.926,41.924 224.091,41.004 L210.296,28.609 C209.351,27.564 207.471,27.479 206.061,27.479 L156.021,27.479 C154.716,27.479 153.466,27.474 152.536,28.384 L138.616,41.264 C137.651,42.199 136.671,43.234 136.671,44.584 L136.671,176.449 C136.671,179.214 135.301,182.479 132.546,182.479 L112.546,182.479 C109.781,182.479 106.671,179.214 106.671,176.449 L106.671,32.999 C106.671,31.809 107.531,30.659 108.301,29.754 L132.366,1.754 C133.321,0.639 134.831,-0.006 136.306,-0.001 L225.686,0.324 C227.351,0.329 228.616,1.159 229.541,2.539 L254.471,30.369 C255.026,31.194 256.671,32.164 256.671,33.154 L256.671,176.449 C256.671,179.214 252.301,182.479 249.536,182.479" id="Fill-6"></path>
                    <path d="M205.659,133.626 L154.429,133.626 C150.889,133.626 147.999,130.736 147.999,127.196 L147.999,101.306 C147.999,97.771 150.889,94.876 154.429,94.876 L205.659,94.876 C209.194,94.876 212.089,97.771 212.089,101.306 L212.089,127.196 C212.089,130.736 209.194,133.626 205.659,133.626" id="Fill-7"></path>
                </g>
            </g>
        </g>
    </g>
</svg>