<?xml version="1.0" encoding="UTF-8"?>
<svg width="170px" height="44px" viewBox="0 0 170 44" version="1.1" xmlns="http://www.w3.org/2000/svg" xmlns:xlink="http://www.w3.org/1999/xlink">
    <!-- Generator: Sketch 42 (36781) - http://www.bohemiancoding.com/sketch -->
    <title>Group 24</title>
    <desc>Created with Sketch.</desc>
    <defs></defs>
    <g id="Page-1" stroke="none" stroke-width="1" fill="none" fill-rule="evenodd">
        <g id="Group-24">
            <g id="24ahoy-05">
                <path d="M31.3657589,38.7882759 L20.6894048,38.7882759 C20.6180655,38.7882759 20.549003,38.7622299 20.495372,38.7149425 L18.3739137,36.85 C18.3202827,36.8027126 18.2512202,36.7766667 18.179881,36.7766667 L10.8488839,36.7766667 C10.7942411,36.7766667 10.7408631,36.7918391 10.6943155,36.8206667 L9.89313988,37.3152874 C9.85063988,37.3415862 9.81547619,37.3782529 9.7909375,37.4222529 L8.39855655,39.9176092 C8.34467262,40.0035862 8.25056548,40.0556782 8.14912202,40.0556782 L0.771577381,40.0556782 C0.691889881,40.0556782 0.615997024,40.0875402 0.560595238,40.1449425 C0.425758929,40.2842759 0.179866071,40.5551034 0.134583333,40.7169425 C0.0634970238,40.9695632 0.3825,41.7365287 0.3825,41.7365287 L1.63751488,43.7213333 C1.69139881,43.8065517 1.78525298,43.8581379 1.88619048,43.8581379 L26.3330506,43.8581379 C26.3914881,43.8581379 26.4484077,43.8409425 26.4969792,43.808069 C26.8187649,43.5913563 27.9083333,42.6921379 28.5306548,42.1158391 C29.1198363,41.5703908 31.6597173,39.0912184 31.6597173,39.0912184 L31.6597173,39.0821149 C31.6597173,38.9197701 31.5281696,38.7882759 31.3657589,38.7882759" id="Fill-1" fill="#FFFFFF"></path>
                <path id="Stroke-2" stroke="#FFFFFF" stroke-width="0.5" stroke-linecap="round"></path>
                <path d="M18.0288542,0.873931034 L17.2069345,0.873931034 C17.1158631,0.873931034 17.0414881,0.799586207 17.0414881,0.708804598 C17.0414881,0.617770115 17.1158631,0.543425287 17.2069345,0.543425287 L18.0288542,0.543425287 C18.1196726,0.543425287 18.1940476,0.617770115 18.1940476,0.708804598 C18.1940476,0.799586207 18.1196726,0.873931034 18.0288542,0.873931034" id="Fill-3" fill="#FFFFFF"></path>
                <path d="M18.0288542,2.52721839 L17.2069345,2.52721839 C17.1158631,2.52721839 17.0414881,2.45287356 17.0414881,2.36183908 C17.0414881,2.27105747 17.1158631,2.19671264 17.2069345,2.19671264 L18.0288542,2.19671264 C18.1196726,2.19671264 18.1940476,2.27105747 18.1940476,2.36183908 C18.1940476,2.45287356 18.1196726,2.52721839 18.0288542,2.52721839" id="Fill-4" fill="#FFFFFF"></path>
                <path d="M2.4958631,35.5368276 L17.6934077,35.5368276 C17.6934077,35.5368276 17.8770685,-3.64491954 17.6177679,4.40101149 C17.5019048,8.00193103 15.4039732,14.8125747 12.506131,20.9728276 C8.9293006,28.5769885 4.42556548,35.3163218 4.42556548,35.3163218" id="Fill-5" fill="#FFFFFF"></path>
                <path d="M2.4958631,35.5368276 L17.6934077,35.5368276 C17.6934077,35.5368276 17.8770685,-3.64491954 17.6177679,4.40101149 C17.5019048,8.00193103 15.4039732,14.8125747 12.506131,20.9728276 C8.9293006,28.5769885 4.42556548,35.3163218 4.42556548,35.3163218" id="Stroke-6" stroke="#FFFFFF" stroke-width="0.661264368" stroke-linecap="round"></path>
                <path d="M4.12629464,35.8951494 L2.1100744,40.0556782" id="Stroke-7" stroke="#FFFFFF" stroke-width="0.5" stroke-linecap="round"></path>
                <path d="M19.0974256,2.51811494 C20.0043452,3.81813793 19.6476488,34.4788046 19.5424107,34.8115862 C19.1968452,35.9057701 35.3038393,35.4354253 35.7733631,35.3006437 C37.2001488,34.8909885 21.6446429,2.72193103 20.5841667,2.47183908 C20.1961012,2.38029885 18.8014435,2.09429885 19.0974256,2.51811494" id="Fill-8" fill="#FFFFFF"></path>
                <path d="M19.0974256,2.51811494 C20.0043452,3.81813793 19.6476488,34.4788046 19.5424107,34.8115862 C19.1968452,35.9057701 35.3038393,35.4354253 35.7733631,35.3006437 C37.2001488,34.8909885 21.6446429,2.72193103 20.5841667,2.47183908 C20.1961012,2.38029885 18.8014435,2.09429885 19.0974256,2.51811494 L19.0974256,2.51811494 Z" id="Stroke-9" stroke="#FFFFFF" stroke-width="0.661264368"></path>
                <path d="M31.1702083,35.3163218 L29.1689137,38.9023218" id="Stroke-10" stroke="#FFFFFF" stroke-width="0.5" stroke-linecap="round"></path>
                <path d="M17.1421726,2.73558621 L17.1421726,0.312551724 C17.1421726,0.173977011 17.0166964,0.0695402299 16.8805952,0.0958390805 C15.9840476,0.26754023 13.9154613,0.666574713 12.9050744,0.643057471 C11.8026042,0.617770115 10.0699702,1.08988506 9.31078869,1.5228046 C9.21136905,1.57970115 9.25311012,1.73117241 9.36745536,1.72864368 C10.2311161,1.70967816 12.0419196,2.31581609 13.0705208,2.68222989 C14.3412202,3.13462069 16.235,3.09163218 16.9640774,2.95204598 C17.0677976,2.93206897 17.1421726,2.84154023 17.1421726,2.73558621" id="Fill-11" fill="#FFFFFF"></path>
                <polyline id="Fill-12" fill="#FFFFFF" points="72.5313095 42.7985977 72.5313095 27.9296322 56.897381 27.9296322 56.897381 42.7985977 49.9154911 42.7985977 49.9154911 6.94112644 56.897381 6.94112644 56.897381 21.3549195 72.5313095 21.3549195 72.5313095 6.94112644 79.5643006 6.94112644 79.5643006 42.7985977 72.5313095 42.7985977"></polyline>
                <path d="M100.459122,24.8445747 C100.459122,26.8675632 100.77939,28.6298391 101.420432,30.1296322 C102.060714,31.6304368 102.912991,32.8692644 103.975491,33.8471264 C105.037991,34.8252414 106.234821,35.5585747 107.567753,36.0468736 C108.899926,36.535931 110.257143,36.7802069 111.64067,36.7802069 C113.023185,36.7802069 114.389509,36.535931 115.738884,36.0468736 C117.0875,35.5585747 118.293943,34.8252414 119.356443,33.8471264 C120.418943,32.8692644 121.270461,31.6304368 121.911503,30.1296322 C122.551786,28.6298391 122.872813,26.8675632 122.872813,24.8445747 C122.872813,22.8215862 122.551786,21.060069 121.911503,19.5595172 C121.270461,18.0597241 120.418943,16.8206437 119.356443,15.8422759 C118.293943,14.8646667 117.0875,14.1313333 115.738884,13.6422759 C114.389509,13.153977 113.023185,12.9089425 111.64067,12.9089425 C110.257143,12.9089425 108.899926,13.153977 107.567753,13.6422759 C106.234821,14.1313333 105.037991,14.8646667 103.975491,15.8422759 C102.912991,16.8206437 102.060714,18.0597241 101.420432,19.5595172 C100.77939,21.060069 100.459122,22.8215862 100.459122,24.8445747 L100.459122,24.8445747 Z M93.224003,24.8951494 C93.224003,21.9957011 93.7299554,19.3913563 94.7418601,17.0813563 C95.7537649,14.7723678 97.102381,12.8077931 98.7894792,11.1894023 C100.475818,9.57101149 102.432336,8.33193103 104.658527,7.47216092 C106.884717,6.6123908 109.212098,6.18250575 111.64067,6.18250575 C114.069241,6.18250575 116.404717,6.6123908 118.64811,7.47216092 C120.890997,8.33193103 122.85561,9.57101149 124.542455,11.1894023 C126.228795,12.8077931 127.57817,14.7723678 128.590074,17.0813563 C129.601979,19.3913563 130.107932,21.9957011 130.107932,24.8951494 C130.107932,27.7953563 129.601979,30.3913563 128.590074,32.6836552 C127.57817,34.9769655 126.228795,36.931931 124.542455,38.5503218 C122.85561,40.1689655 120.890997,41.4077931 118.64811,42.2675632 C116.404717,43.1273333 114.069241,43.5572184 111.64067,43.5572184 C109.212098,43.5572184 106.884717,43.1273333 104.658527,42.2675632 C102.432336,41.4077931 100.475818,40.1689655 98.7894792,38.5503218 C97.102381,36.931931 95.7537649,34.9769655 94.7418601,32.6836552 C93.7299554,30.3913563 93.224003,27.7953563 93.224003,24.8951494 L93.224003,24.8951494 Z" id="Fill-13" fill="#FFFFFF"></path>
                <polyline id="Fill-14" fill="#FFFFFF" points="137.748065 6.94112644 145.944494 6.94112644 153.989137 21.1526207 162.03378 6.94112644 169.876042 6.94112644 157.227232 27.7273333 157.227232 42.7985977 150.245089 42.7985977 150.245089 27.7273333 137.748065 6.94112644"></polyline>
            </g>
        </g>
    </g>
</svg>