<?xml version="1.0" encoding="UTF-8"?>
<svg width="244px" height="325px" viewBox="0 0 244 325" version="1.1" xmlns="http://www.w3.org/2000/svg" xmlns:xlink="http://www.w3.org/1999/xlink">
    <!-- Generator: Sketch 42 (36781) - http://www.bohemiancoding.com/sketch -->
    <title>ahoy-portfolio-bg</title>
    <desc>Created with Sketch.</desc>
    <defs>
        <rect id="path-1" x="0" y="0" width="279" height="345"></rect>
    </defs>
    <g id="Page-1" stroke="none" stroke-width="1" fill="none" fill-rule="evenodd">
        <g id="ahoy-portfolio-bg" transform="translate(-35.000000, -20.000000)">
            <mask id="mask-2" fill="white">
                <use xlink:href="#path-1"></use>
            </mask>
            <g id="Mask"></g>
            <g id="24ahoy-05" opacity="0.05" mask="url(#mask-2)">
                <g transform="translate(35.000000, 20.000000)">
                    <path d="M235.243192,290.912069 L155.170536,290.912069 C154.635491,290.912069 154.117522,290.716724 153.71529,290.362069 L137.804353,276.375 C137.402121,276.020345 136.884152,275.825 136.349107,275.825 L81.3666295,275.825 C80.956808,275.825 80.5564732,275.938793 80.2073661,276.155 L74.1985491,279.864655 C73.8797991,280.061897 73.6160714,280.336897 73.4320313,280.666897 L62.9891741,299.382069 C62.5850446,300.026897 61.8792411,300.417586 61.1184152,300.417586 L5.78683036,300.417586 C5.18917411,300.417586 4.61997768,300.656552 4.20446429,301.087069 C3.19319196,302.132069 1.34899554,304.163276 1.009375,305.377069 C0.476227679,307.271724 2.86875,313.023966 2.86875,313.023966 L12.2813616,327.91 C12.6854911,328.549138 13.3893973,328.936034 14.1464286,328.936034 L197.497879,328.936034 C197.936161,328.936034 198.363058,328.807069 198.727344,328.560517 C201.140737,326.935172 209.3125,320.191034 213.979911,315.868793 C218.398772,311.777931 237.447879,293.184138 237.447879,293.184138 L237.447879,293.115862 C237.447879,291.898276 236.461272,290.912069 235.243192,290.912069" id="Fill-1" stroke="none" fill="#FFFFFF" fill-rule="evenodd"></path>
                    <path d="M133.52779,2.42189655 L133.52779,276.651897" id="Stroke-2" stroke="#FFFFFF" stroke-width="3.75" stroke-linecap="round" fill="none"></path>
                    <path d="M135.216406,6.55448276 L129.052009,6.55448276 C128.368973,6.55448276 127.811161,5.99689655 127.811161,5.31603448 C127.811161,4.63327586 128.368973,4.07568966 129.052009,4.07568966 L135.216406,4.07568966 C135.897545,4.07568966 136.455357,4.63327586 136.455357,5.31603448 C136.455357,5.99689655 135.897545,6.55448276 135.216406,6.55448276" id="Fill-3" stroke="none" fill="#FFFFFF" fill-rule="evenodd"></path>
                    <path d="M135.216406,18.9541379 L129.052009,18.9541379 C128.368973,18.9541379 127.811161,18.3965517 127.811161,17.7137931 C127.811161,17.032931 128.368973,16.4753448 129.052009,16.4753448 L135.216406,16.4753448 C135.897545,16.4753448 136.455357,17.032931 136.455357,17.7137931 C136.455357,18.3965517 135.897545,18.9541379 135.216406,18.9541379" id="Fill-4" stroke="none" fill="#FFFFFF" fill-rule="evenodd"></path>
                    <path d="M18.7189732,266.526207 L132.700558,266.526207 C132.700558,266.526207 134.078013,-27.3368966 132.133259,33.0075862 C131.264286,60.0144828 115.529799,111.09431 93.7959821,157.296207 C66.9697545,214.327414 33.1917411,264.872414 33.1917411,264.872414" id="Fill-5" stroke="none" fill="#FFFFFF" fill-rule="evenodd"></path>
                    <path d="M18.7189732,266.526207 L132.700558,266.526207 C132.700558,266.526207 134.078013,-27.3368966 132.133259,33.0075862 C131.264286,60.0144828 115.529799,111.09431 93.7959821,157.296207 C66.9697545,214.327414 33.1917411,264.872414 33.1917411,264.872414" id="Stroke-6" stroke="#FFFFFF" stroke-width="4.95948276" stroke-linecap="round" fill="none"></path>
                    <path d="M30.9472098,269.213621 L15.825558,300.417586" id="Stroke-7" stroke="#FFFFFF" stroke-width="3.75" stroke-linecap="round" fill="none"></path>
                    <path d="M143.230692,18.8858621 C150.032589,28.6360345 147.357366,258.591034 146.56808,261.086897 C143.976339,269.293276 264.778795,265.76569 268.300223,264.754828 C279.001116,261.682414 162.334821,20.4144828 154.38125,18.5387931 C151.470759,17.8522414 141.010826,15.7072414 143.230692,18.8858621" id="Fill-8" stroke="none" fill="#FFFFFF" fill-rule="evenodd"></path>
                    <path d="M143.230692,18.8858621 C150.032589,28.6360345 147.357366,258.591034 146.56808,261.086897 C143.976339,269.293276 264.778795,265.76569 268.300223,264.754828 C279.001116,261.682414 162.334821,20.4144828 154.38125,18.5387931 C151.470759,17.8522414 141.010826,15.7072414 143.230692,18.8858621 L143.230692,18.8858621 Z" id="Stroke-9" stroke="#FFFFFF" stroke-width="4.95948276" fill="none"></path>
                    <path d="M233.776562,264.872414 L218.766853,291.767414" id="Stroke-10" stroke="#FFFFFF" stroke-width="3.75" stroke-linecap="round" fill="none"></path>
                    <path d="M128.566295,20.5168966 L128.566295,2.34413793 C128.566295,1.30482759 127.625223,0.521551724 126.604464,0.718793103 C119.880357,2.00655172 104.36596,4.99931034 96.788058,4.82293103 C88.5195313,4.63327586 75.5247768,8.17413793 69.8309152,11.4210345 C69.0852679,11.8477586 69.3983259,12.9837931 70.2559152,12.9648276 C76.7333705,12.8225862 90.3143973,17.3686207 98.0289063,20.1167241 C107.559152,23.5096552 121.7625,23.1872414 127.23058,22.1403448 C128.008482,21.9905172 128.566295,21.3115517 128.566295,20.5168966" id="Fill-11" stroke="none" fill="#FFFFFF" fill-rule="evenodd"></path>
                </g>
            </g>
        </g>
    </g>
</svg>