<?xml version="1.0" encoding="UTF-8"?>
<svg width="208px" height="34px" viewBox="0 0 208 34" version="1.1" xmlns="http://www.w3.org/2000/svg" xmlns:xlink="http://www.w3.org/1999/xlink">
    <!-- Generator: Sketch 42 (36781) - http://www.bohemiancoding.com/sketch -->
    <title>4. Airtasker_primary logo solid reversed_RGB</title>
    <desc>Created with Sketch.</desc>
    <defs></defs>
    <g id="Page-1" stroke="none" stroke-width="1" fill="none" fill-rule="evenodd">
        <g id="4.-Airtasker_primary-logo-solid-reversed_RGB" fill="#FFFFFF">
            <path d="M207.499522,17.3201667 L207.461188,10.7092917 C206.171304,10.7617083 202.289584,11.281625 200.565242,13.3464167 L200.565242,11.154125 L193.361911,11.154125 L193.361911,33.2017083 L200.565242,33.2017083 L200.565242,22.9620417 C200.568792,22.905375 200.575891,22.8472917 200.58015,22.7899167 C201.627959,17.8783333 206.299795,17.3598333 207.499522,17.3201667" id="Fill-6"></path>
            <path d="M142.586485,17.5836667 C141.695563,16.734375 140.764177,16.3058333 139.960573,15.9190833 C139.156969,15.53375 138.308642,15.340375 137.41559,15.340375 C136.729829,15.340375 136.09802,15.4735417 135.517324,15.7412917 C134.937338,16.0083333 134.64699,16.4694583 134.64699,17.1225417 C134.64699,17.745875 134.966444,18.1914167 135.606771,18.4591667 C136.246389,18.7262083 137.28142,19.0237083 138.710444,19.35025 C139.543154,19.5280417 140.384382,19.7809167 141.23271,20.1074583 C142.081747,20.4347083 142.847727,20.8646667 143.532778,21.3994583 C144.217119,21.93425 144.76729,22.5880417 145.18471,23.360125 C145.60142,24.1329167 145.81013,25.0530417 145.81013,26.122625 C145.81013,27.51875 145.526881,28.6995417 144.961092,29.6642917 C144.395304,30.6304583 143.65914,31.409625 142.751181,32.0039167 C141.843222,32.5982083 140.823809,33.0281667 139.692942,33.2959167 C138.560655,33.5629583 137.429788,33.6968333 136.298922,33.6968333 C134.483003,33.6968333 132.70471,33.407125 130.963331,32.8277083 C129.221952,32.249 127.770212,31.3954583 126.609529,30.2656667 L130.190962,25.7790833 C130.845488,26.492375 132.175836,27.2517083 133.128519,27.7262917 C134.080491,28.2022917 135.093515,28.4395833 136.165461,28.4395833 C136.760355,28.4395833 137.34815,28.298625 137.928846,28.016 C138.509543,27.733375 138.799891,27.236125 138.799891,26.5235417 C138.799891,25.8407083 138.442102,25.3356667 137.727945,25.0084167 C137.013078,24.6825833 135.897119,24.3404583 134.378648,23.9841667 C133.60415,23.8056667 132.831072,23.568375 132.057283,23.270875 C131.282785,22.9747917 130.590635,22.5731667 129.980833,22.068125 C129.370321,21.5630833 128.871263,20.9390417 128.485078,20.1967083 C128.097474,19.454375 127.904382,18.5632917 127.904382,17.5234583 C127.904382,16.1868333 128.186922,15.0506667 128.75271,14.1149583 C129.317788,13.17925 130.047563,12.4149583 130.940614,11.8206667 C131.833666,11.226375 132.823263,10.788625 133.910116,10.506 C134.996259,10.2240833 136.076014,10.083125 137.147249,10.083125 C138.814089,10.083125 140.444014,10.3430833 142.037024,10.8622917 C143.628614,11.3822083 144.976,12.1620833 146.077761,13.2012083 L142.586485,17.5836667" id="Fill-7"></path>
            <path d="M185.002867,19.3155417 C184.963823,18.2523333 184.604614,17.333625 183.924532,16.5572917 C183.202567,15.735625 182.120683,15.323375 180.678881,15.323375 C179.972532,15.323375 179.324396,15.433875 178.735891,15.6541667 C178.146676,15.8744583 177.632,16.1762083 177.190444,16.5572917 C176.748887,16.9397917 176.395358,17.3874583 176.130567,17.901 C175.8963,18.35575 175.753611,18.8275 175.703918,19.3155417 L185.002867,19.3155417 L185.002867,19.3155417 Z M191.673775,22.284875 L191.673775,23.16675 C191.673775,23.4607083 191.658867,23.7390833 191.629761,24.004 L175.68901,24.004 C175.747932,24.62025 175.931795,25.1784167 176.241311,25.6777917 C176.550116,26.177875 176.947659,26.6106667 177.433229,26.9775833 C177.918799,27.3452083 178.46329,27.631375 179.066703,27.8367917 C179.670116,28.0429167 180.295536,28.1449167 180.943672,28.1449167 C182.091577,28.1449167 183.063427,27.9324167 183.857802,27.506 C184.652887,27.081 185.300314,26.530625 185.800792,25.8541667 L190.834676,29.0267917 C189.803904,30.5242083 188.443031,31.677375 186.749925,32.484875 C185.056819,33.2916667 183.092532,33.6968333 180.855645,33.6968333 C179.206553,33.6968333 177.646198,33.439 176.17458,32.9254583 C174.702253,32.4119167 173.415208,31.6632083 172.311317,30.678625 C171.207427,29.69475 170.338512,28.4835 169.705993,27.0434583 C169.072765,25.6048333 168.75686,23.959375 168.75686,22.1085 C168.75686,20.3178333 169.065666,18.6943333 169.683986,17.240125 C170.301597,15.786625 171.140696,14.5527083 172.200573,13.5390833 C173.260451,12.5261667 174.51129,11.740625 175.953802,11.1824583 C177.395604,10.6242917 178.956669,10.3452083 180.634867,10.3452083 C182.253433,10.3452083 183.739959,10.6172083 185.094444,11.1597917 C186.448218,11.7037917 187.611031,12.4893333 188.582881,13.517125 C189.55402,14.545625 190.311481,15.7937083 190.856683,17.2620833 C191.401174,18.7311667 191.673775,20.4056667 191.673775,22.284875 L191.673775,22.284875 Z" id="Fill-8"></path>
            <path d="M104.384765,17.1097917 L104.384765,10.4797917 L98.1781297,10.4797917 L98.1781297,5.542 C98.016273,2.68883333 96.6759863,0.571625 91.1721502,0.5695 L91.1721502,26.2111667 C91.1721502,27.3324583 91.319099,28.3482083 91.5711126,29.259125 C91.8231263,30.1693333 92.2362867,30.9541667 92.8105939,31.6129167 C93.3841911,32.2716667 94.148041,32.776 95.1007235,33.1259167 C96.0526962,33.4758333 97.4916587,33.6515 98.8922867,33.6515 C101.052505,33.6515 102.554648,33.356125 104.384765,32.7427083 L104.384765,26.8904583 C104.384765,26.8904583 102.661133,27.3607917 100.783454,27.3607917 C99.8023754,27.3607917 99.1237133,27.1157083 98.7453379,26.624125 C98.3669625,26.13325 98.1781297,25.3965833 98.1781297,24.4148333 L98.1781297,17.1097917 L104.384765,17.1097917" id="Fill-9"></path>
            <path d="M162.509051,21.4355833 L170.679263,11.111625 L161.979468,11.111625 L154.777556,20.1839583 L154.777556,5.68225 C154.651904,2.76108333 153.360601,0.575875 147.778676,0.5695 L147.778676,33.2024167 L154.777556,33.2024167 L154.777556,22.6659583 L163.053543,33.2024167 L171.80587,33.2024167 L162.509051,21.4355833" id="Fill-10"></path>
            <path d="M125.28628,33.1811667 L125.28628,18.581 C125.28628,12.30375 120.29428,10.0413333 115.875877,10.0413333 C111.07058,10.0413333 108.174908,11.5734583 106.251795,13.1714583 L109.904928,17.7040833 C111.119563,16.575 113.531085,15.4175833 115.158881,15.4175833 C117.821706,15.4175833 118.371167,16.9369583 118.371167,18.880625 L118.371167,19.254625 L115.974553,19.254625 C109.833229,19.254625 106.138212,21.9207917 106.138212,26.6531667 C106.138212,31.8232917 110.691495,33.1811667 116.233666,33.1811667 L125.28628,33.1811667 L125.28628,33.1811667 Z M118.371167,28.5925833 C117.621515,28.58975 116.727044,28.60675 116.075358,28.5925833 C114.277188,28.553625 113.178266,27.8495417 113.178266,26.3039583 C113.178266,24.7605 114.277188,23.868 116.474321,23.868 L118.371167,23.868 L118.371167,28.5925833 L118.371167,28.5925833 Z" id="Fill-11"></path>
            <path d="M65.6477816,4.570875 C65.6477816,6.8425 67.5283003,8.621125 69.6579932,8.621125 C71.8856519,8.621125 73.7178976,6.8425 73.7178976,4.570875 C73.7178976,2.348125 71.8856519,0.5695 69.6579932,0.5695 C67.5283003,0.5695 65.6477816,2.348125 65.6477816,4.570875" id="Fill-12"></path>
            <path d="M66.3271536,10.5279583 L66.0360956,10.5279583 L66.0360956,33.2017083 L73.3295836,33.2017083 L73.3295836,15.297875 C73.1166143,12.543875 71.7103072,10.5279583 66.3271536,10.5279583" id="Fill-13"></path>
            <path d="M89.5187986,17.3201667 L89.4804642,10.7092917 C88.1905802,10.7617083 84.3088601,11.281625 82.5845188,13.3464167 L82.5845188,11.154125 L75.3811877,11.154125 L75.3811877,33.2017083 L82.5845188,33.2017083 L82.5845188,22.9620417 C82.5880683,22.905375 82.5944573,22.8472917 82.5994266,22.7899167 C83.6479454,17.8783333 88.3190717,17.3598333 89.5187986,17.3201667" id="Fill-14"></path>
            <path d="M205.395386,29.879625 L204.983645,29.879625 L204.983645,30.63825 L205.395386,30.63825 C205.632491,30.63825 205.794348,30.4710833 205.794348,30.2592917 C205.794348,30.0467917 205.632491,29.879625 205.395386,29.879625 L205.395386,29.879625 Z M205.794348,32.0017917 L205.29529,31.0051667 L204.983645,31.0051667 L204.983645,32.0017917 L204.53499,32.0017917 L204.53499,29.4872083 L205.451468,29.4872083 C205.912901,29.4872083 206.236614,29.841375 206.236614,30.2592917 C206.236614,30.61275 206.025065,30.844375 205.756724,30.9407083 L206.299085,32.0017917 L205.794348,32.0017917 L205.794348,32.0017917 Z M205.320137,28.8504167 C204.310662,28.8504167 203.512737,29.6869583 203.512737,30.7480417 C203.512737,31.809125 204.310662,32.6449583 205.320137,32.6449583 C206.330321,32.6449583 207.121857,31.809125 207.121857,30.7480417 C207.121857,29.6869583 206.330321,28.8504167 205.320137,28.8504167 L205.320137,28.8504167 Z M205.320137,33.0763333 C204.073556,33.0763333 203.063372,32.034375 203.063372,30.7480417 C203.063372,29.4617083 204.073556,28.41975 205.320137,28.41975 C206.567427,28.41975 207.576901,29.4617083 207.576901,30.7480417 C207.576901,32.034375 206.567427,33.0763333 205.320137,33.0763333 L205.320137,33.0763333 Z" id="Fill-15"></path>
            <path d="M45.6556451,20.4141667 L48.8984573,11.0825833 L52.1405597,20.4141667 L45.6556451,20.4141667 L45.6556451,20.4141667 Z M52.3521092,0.587916667 L45.7891058,0.587916667 L35.7838089,27.1312917 L31.7885051,27.1312917 C28.6628259,27.1312917 25.9311399,26.449875 24.0967645,25.2124167 C22.2134061,23.9416667 21.2983481,22.1162917 21.2983481,19.6314583 L21.2983481,16.5665 L18.0867713,16.5665 C17.9547304,16.5665 13.2836041,16.5523333 9.97548123,13.29825 C8.31077133,11.6612917 7.25941297,9.43216667 6.83276451,6.64770833 L29.3649147,6.64770833 C33.460314,6.64770833 34.9681365,8.64095833 35.9101706,10.431625 C36.6988669,11.9304583 36.9721775,13.2685 36.9721775,13.2685 L39.7954403,5.78141667 C39.7954403,5.78141667 37.4080546,0.594291667 29.3649147,0.594291667 L0.548750853,0.594291667 L0.548750853,3.621 C0.548750853,9.530625 2.2872901,14.2367917 5.71609556,17.6091667 C8.92625256,20.767625 12.8796724,21.9519583 15.4928055,22.3946667 C16.7990171,29.0352917 22.9062662,33.1847083 31.7885051,33.1847083 L41.0256928,33.1847083 L43.1404778,27.1985833 L54.6606962,27.2113333 L56.7705119,33.1847083 L64.660314,33.1847083 L52.3521092,0.587916667 L52.3521092,0.587916667 Z" id="Fill-16"></path>
        </g>
    </g>
</svg>