<?xml version="1.0" encoding="UTF-8"?>
<svg width="284px" height="290px" viewBox="0 0 284 290" version="1.1" xmlns="http://www.w3.org/2000/svg" xmlns:xlink="http://www.w3.org/1999/xlink">
    <!-- Generator: Sketch 42 (36781) - http://www.bohemiancoding.com/sketch -->
    <title>Group 8</title>
    <desc>Created with Sketch.</desc>
    <defs>
        <rect id="path-1" x="0" y="0" width="308" height="312"></rect>
    </defs>
    <g id="Page-1" stroke="none" stroke-width="1" fill="none" fill-rule="evenodd">
        <g id="Group-8" transform="translate(-24.000000, -22.000000)">
            <mask id="mask-2" fill="white">
                <use xlink:href="#path-1"></use>
            </mask>
            <g id="Mask"></g>
            <g mask="url(#mask-2)" id="Fill-2-Copy" fill-opacity="0.0399999991" fill="#FFFFFF">
                <g transform="translate(24.000000, 22.000000)">
                    <path d="M298,184.1216 C298,174.3144 293.611264,157.4716 283.970736,143.676 C272.605763,127.408667 257.114144,119.161467 237.92824,119.161467 L76.8988639,119.161467 C78.9722035,136.961067 84.9735368,151.0236 94.8177265,161.092533 C112.117258,178.789867 136.388019,179.0724 137.05743,179.0724 L137.069116,179.0724 L151.559122,178.8488 L151.559122,193.894133 C151.559122,232.7156 181.091691,237.950267 209.981559,237.950267 L212.295285,237.950267 L212.295285,267.595467 L209.981559,267.595467 C147.552669,267.595467 127.957773,237.367867 123.886215,207.3916 C110.94704,205.112267 91.1234427,198.929467 74.7804517,182.211467 C56.6979923,163.715067 47.5282222,137.514 47.5282222,104.339733 L47.5282222,89.5162667 L237.92824,89.5162667 C261.871807,89.5162667 280.443388,98.5365333 294.273998,111.5036 C275.82595,47.0270667 218.330006,0 150.242001,0 C67.2666824,0 0,69.8412 0,155.998267 C0,242.157067 67.2666824,312 150.242001,312 C223.890629,312 285.155978,256.971867 298,184.3556 L298,184.1216"></path>
                </g>
            </g>
        </g>
    </g>
</svg>