<?xml version="1.0" encoding="UTF-8"?>
<svg width="302px" height="307px" viewBox="0 0 302 307" version="1.1" xmlns="http://www.w3.org/2000/svg" xmlns:xlink="http://www.w3.org/1999/xlink">
    <!-- Generator: Sketch 42 (36781) - http://www.bohemiancoding.com/sketch -->
    <title>Group 4</title>
    <desc>Created with Sketch.</desc>
    <defs>
        <rect id="path-1" x="0" y="0" width="311" height="326"></rect>
        <path d="M163.847402,325.554232 C73.3757332,323.219801 0.773791023,251.248432 0.773791023,162.806338 C0.773791023,72.8911929 75.8143233,0 168.382585,0 C260.950847,0 335.991379,72.8911929 335.991379,162.806338 C335.991379,251.248432 263.389437,323.219801 172.917769,325.554232 L163.847402,325.554232 L163.847402,325.554232 L163.847402,325.554232 Z M254.256322,253.338074 L187.582742,253.338074 C183.596277,253.338074 180.274544,250.371034 179.942178,246.511739 L174.939347,188.42555 C174.577116,184.591581 171.266944,181.65766 167.3036,181.65766 L167.063718,181.65766 C163.057986,181.65766 159.727582,184.652948 159.419301,188.531725 L155.395264,248.536846 C154.992571,251.291538 152.565818,253.338074 149.70169,253.338074 L82.4953613,253.338074 C79.0734367,253.338074 74.4925664,250.453831 74.8625042,247.14976 L83.2227129,172.869533 C83.6369662,169.196286 86.8305698,166.414321 90.634956,166.414321 L92.5482281,166.414321 L96.511572,166.413347 L105.299521,110.345447 C105.585645,108.526844 109.173271,107.183591 111.067275,107.183591 L112.984401,107.183591 C115.101909,107.183591 116.817689,105.51597 116.817689,103.459693 L116.817689,79.7214243 C116.817689,75.607895 120.25021,72.2736278 124.485227,72.2736278 L152.318229,72.2736278 C156.552283,72.2736278 159.984805,75.607895 159.984805,79.7214243 L159.984805,143.61896 C159.984805,148.760141 163.857591,150.616732 166.707268,150.659592 C169.397024,150.700503 173.322796,148.760141 173.322796,143.61896 L173.322796,79.7214243 C173.322796,75.607895 176.755318,72.2736278 180.989371,72.2736278 L208.343574,72.2736278 C212.577627,72.2736278 216.011112,75.607895 216.011112,79.7214243 L216.011112,103.459693 C215.41189,107.99792 220.3232,107.183591 220.3232,107.183591 L221.98214,107.183591 C223.9378,107.183591 225.634312,108.494699 226.073613,110.344472 L240.807542,166.297432 L246.223662,166.297432 C250.05406,166.297432 253.297759,170.905792 253.818947,174.591702 L261.860277,244.941526 C262.449866,249.395009 258.878617,253.338074 254.256322,253.338074 L254.256322,253.338074 Z" id="path-3"></path>
    </defs>
    <g id="Page-1" stroke="none" stroke-width="1" fill="none" fill-rule="evenodd">
        <g id="Group-4" transform="translate(-9.000000, -19.000000)">
            <mask id="mask-2" fill="white">
                <use xlink:href="#path-1"></use>
            </mask>
            <g id="Mask"></g>
            <g mask="url(#mask-2)" id="Group">
                <g transform="translate(9.000000, 19.000000)">
                    <g>
                        <mask id="mask-4" fill="white">
                            <use xlink:href="#path-3"></use>
                        </mask>
                        <use id="Clip-2" fill-opacity="0.0399999991" fill="#FFFFFF" xlink:href="#path-3"></use>
                    </g>
                </g>
            </g>
        </g>
    </g>
</svg>