<?xml version="1.0" encoding="UTF-8"?>
<svg width="277px" height="331px" viewBox="0 0 277 331" version="1.1" xmlns="http://www.w3.org/2000/svg" xmlns:xlink="http://www.w3.org/1999/xlink">
    <!-- Generator: Sketch 42 (36781) - http://www.bohemiancoding.com/sketch -->
    <title>Page 1</title>
    <desc>Created with Sketch.</desc>
    <defs>
        <rect id="path-1" x="0" y="0" width="302" height="331"></rect>
    </defs>
    <g id="Page-1" stroke="none" stroke-width="1" fill="none" fill-rule="evenodd" opacity="0.04">
        <g transform="translate(-25.000000, 0.000000)" id="Group-11">
            <g>
                <mask id="mask-2" fill="white">
                    <use xlink:href="#path-1"></use>
                </mask>
                <g id="Mask"></g>
                <g mask="url(#mask-2)" id="Fill-1" fill="#FFFFFF">
                    <g transform="translate(25.000000, 0.000000)">
                        <path d="M118.088084,121.408162 C117.53447,123.778635 116.244996,125.560033 115.40254,126.812487 C114.945207,127.491999 113.974049,128.248263 113.23426,128.550866 C112.060716,129.030435 111.161768,129.483607 108.272365,129.605821 C105.716505,129.713859 103.425418,129.118919 102.940084,128.513224 C102.188996,127.575594 104.448154,123.208137 108.572996,119.687382 C112.205628,116.587534 113.10654,116.495629 114.828295,116.260488 C116.451804,116.039036 117.48633,116.618821 118.0704,118.098594 C118.373979,118.869034 118.533628,119.501128 118.088084,121.408162 M288.39047,79.585388 L172.110891,12.8738783 C161.307804,6.66684903 144.29854,6.66782674 133.512154,12.8650788 L88.345207,38.5863393 C85.8615579,40.001583 84.980786,43.1517836 86.4028912,45.6234493 C87.8245053,48.0936485 90.9796632,48.9496387 93.4633123,47.5348838 L138.597347,21.804824 C146.23054,17.4187905 159.12626,16.9885955 166.759453,21.374629 L283.725277,88.5163337 C291.358961,92.9023671 298.66647,104.018508 298.66647,112.790086 L298.66647,246.213105 C298.66647,254.985661 291.357979,266.101313 283.723804,270.487835 L274.351172,275.625243 C280.538681,255.908136 269.464435,217.251206 266.510189,198.47515 C265.259032,190.523387 261.508996,177.146767 258.384295,166.677874 C255.679102,157.614937 249.573628,146.222103 246.030891,139.858639 C240.659804,130.211516 229.810049,114.959637 219.366049,104.595849 C209.491382,94.7981582 194.461768,84.3385538 185.034611,79.3742014 C178.518961,75.9424187 167.450611,71.8052139 157.707593,68.3250343 C146.618611,64.3638184 130.193418,56.1466053 123.876716,61.6951429 C121.344926,63.9194465 124.627312,67.6758309 125.426049,68.5543086 C128.799804,72.2666958 135.636225,75.6828351 136.325909,80.2761443 C136.523382,81.5931276 134.681768,83.8096095 133.448786,84.767771 C131.868014,85.996271 129.904575,88.0656067 127.883663,86.8351513 C113.261277,77.9306039 26.8537684,1.49326546 26.8537684,1.49326546 C23.5704,-0.94711337 22.9868211,-0.329196936 25.5392421,2.85620139 C25.5392421,2.85620139 101.849558,89.2100231 102.73033,104.595849 C103.314891,114.805158 85.5039439,121.732275 74.7711018,130.645133 C62.428014,140.895018 46.1285754,155.462006 41.832786,166.555171 C40.8508211,169.091366 39.5235228,173.668054 39.7681544,177.650779 C39.9258386,180.226083 40.1650667,184.38382 40.9741193,186.454133 C42.2002246,189.593579 45.9846456,194.140935 49.8673123,196.612601 C52.9085053,198.548479 58.7442947,200.304945 61.7466807,199.677252 C68.1429614,198.340225 75.9618386,191.165257 84.2621193,186.454133 C90.1799439,183.094701 98.660014,175.549179 104.401488,175.465096 C107.349839,175.422076 111.417698,178.967763 115.479663,179.492307 C116.684154,179.647764 120.027944,180.250037 123.873277,179.492307 C127.528505,178.772219 131.673488,176.727816 133.448295,175.465096 C136.886891,173.01885 142.22654,162.397923 144.871804,162.836428 C148.419944,163.424525 153.153909,179.306541 154.423733,189.947023 C155.383102,197.986292 153.512996,211.874746 151.5584,218.876658 C148.884154,228.454852 144.14233,238.379157 127.883663,250.908586 C114.019733,261.592087 91.6801544,265.611966 84.2621193,265.485352 C69.3017684,265.22919 24.3347509,238.59181 8.99271579,248.358214 C8.91313684,247.631771 9.33313684,246.914128 9.33313684,246.213105 L9.33313684,112.790086 C9.33313684,104.018508 15.316786,92.9023671 22.9499789,88.5163337 L63.0061895,65.3674437 C65.4844351,63.9438894 66.2168561,60.7902669 64.7859088,58.3239786 C63.3554526,55.8576903 60.1285754,55.0129437 57.6503298,56.4364981 L18.3122947,79.585388 C7.5106807,85.7924173 -0.000196491228,100.377005 -0.000196491228,112.790086 L-0.000196491228,246.213105 C-0.000196491228,258.625697 7.48120702,273.211263 18.2833123,279.418292 L133.900716,346.129313 C139.302751,349.233072 145.986891,350.784218 152.919593,350.784218 C159.849839,350.784218 166.660225,349.232583 172.060786,346.129802 L211.077558,323.677045 C226.99826,314.988573 242.281347,306.224817 255.39026,298.198747 L288.406189,279.418292 C299.208295,273.211752 307.999804,258.626186 307.999804,246.213105 L307.999804,112.790086 C307.999804,100.377005 299.193067,85.7919284 288.39047,79.585388"></path>
                    </g>
                </g>
            </g>
        </g>
    </g>
</svg>