<?xml version="1.0" encoding="UTF-8"?>
<svg width="212px" height="139px" viewBox="0 0 212 139" version="1.1" xmlns="http://www.w3.org/2000/svg" xmlns:xlink="http://www.w3.org/1999/xlink">
    <!-- Generator: Sketch 42 (36781) - http://www.bohemiancoding.com/sketch -->
    <title>Group 6</title>
    <desc>Created with Sketch.</desc>
    <defs></defs>
    <g id="Page-1" stroke="none" stroke-width="1" fill="none" fill-rule="evenodd">
        <g id="Group-6" transform="translate(-2.000000, 0.000000)" fill="#FFFFFF">
            <g id="Page-1" transform="translate(68.000000, 0.000000)">
                <path d="M30.2888268,31.1302981 C30.1468284,31.7381114 29.8160868,32.1948802 29.6000022,32.5160223 C29.4826992,32.6902563 29.2336035,32.8841699 29.0438523,32.9617604 C28.7428459,33.084727 28.5122718,33.2009248 27.7711585,33.2322618 C27.1155971,33.2599638 26.527948,33.107415 26.4034632,32.9521086 C26.210814,32.7116908 26.7902734,31.5918301 27.8482686,30.6890724 C28.780015,29.8942396 29.0110931,29.8706741 29.452712,29.8103816 C29.8691314,29.7535989 30.1344807,29.9022618 30.2842909,30.2816908 C30.3621569,30.4792396 30.4031059,30.6413148 30.2888268,31.1302981 M73.9702829,20.4065097 L44.145326,3.30099443 C41.3744041,1.70944847 37.0116386,1.70969916 34.2450006,3.29873816 L22.6599719,9.89393315 C22.0229321,10.2568162 21.7970198,11.0645599 22.1617805,11.6983203 C22.5264153,12.3317047 23.3356928,12.5511894 23.9727327,12.1884318 L35.5493196,5.5909805 C37.5071841,4.46635655 40.8148523,4.35605014 42.7727167,5.48067409 L72.7736912,22.6964958 C74.7316817,23.8211198 76.6060102,26.6714123 76.6060102,28.9205348 L76.6060102,63.1315655 C76.6060102,65.3809387 74.7314297,68.2311058 72.7733132,69.3558552 L70.3692941,70.6731393 C71.9563499,65.6174708 69.1158778,55.7054373 68.358133,50.8910641 C68.0372191,48.8521504 67.0753595,45.4222479 66.2738938,42.7379164 C65.5800293,40.4140864 64.014015,37.4928468 63.105326,35.8611894 C61.7276769,33.3875682 58.9447853,29.4768301 56.2659671,26.8194485 C53.7331793,24.3072201 49.8781809,21.6252702 47.4601761,20.3523593 C45.7889544,19.472415 42.9499943,18.4115933 40.4509735,17.5192396 C37.6067215,16.5035432 33.3937662,14.3965655 31.7735732,15.8192674 C31.1241856,16.3896017 31.9660963,17.3527772 32.1709671,17.5780279 C33.0363132,18.529922 34.7898108,19.4058552 34.9667104,20.5836267 C35.0173611,20.9213148 34.544999,21.4896435 34.228747,21.7353259 C33.8232893,22.0503259 33.3196801,22.5809248 32.8013292,22.2654234 C29.0507821,19.9822061 6.88781722,0.382888579 6.88781722,0.382888579 C6.04565455,-0.242849582 5.89597033,-0.0844094708 6.55064976,0.732359331 C6.55064976,0.732359331 26.1237502,22.8743649 26.3496625,26.8194485 C26.4995987,29.4372201 21.9312064,31.2134039 19.1783021,33.4987521 C16.0123802,36.1269276 11.8316801,39.8620529 10.729838,42.706454 C10.4779703,43.3567604 10.137527,44.5302702 10.2002734,45.5514819 C10.2407183,46.2118162 10.3020788,47.2779025 10.5095955,47.8087521 C10.8240836,48.6137382 11.794763,49.779727 12.7906418,50.4134875 C13.570688,50.9098663 15.0675301,51.3602423 15.8376226,51.1992953 C17.4782271,50.856468 19.4837183,49.0167326 21.6126864,47.8087521 C23.13057,46.9473593 25.305653,45.01261 26.7783037,44.9910501 C27.5345365,44.9800195 28.5779161,45.8891699 29.6197837,46.0236685 C29.9287279,46.0635292 30.7863882,46.2179582 31.7726912,46.0236685 C32.7102335,45.8390306 33.7733946,45.3148245 34.2286211,44.9910501 C35.1105987,44.3638078 36.4801841,41.640493 37.1586769,41.7529304 C38.0687518,41.9037242 39.2829831,45.9760362 39.6086848,48.7043649 C39.8547566,50.7657159 39.3750868,54.3268579 38.8737455,56.1222201 C38.1878188,58.5781671 36.9715716,61.1228607 32.8013292,64.3355348 C29.2453212,67.0748942 23.5153643,68.1056323 21.6126864,68.0731671 C17.7754536,68.0074847 6.24170558,61.1773872 2.30657321,63.6815933 C2.28616172,63.4953259 2.393889,63.3113148 2.393889,63.1315655 L2.393889,28.9205348 C2.393889,26.6714123 3.92865614,23.8211198 5.88652057,22.6964958 L16.1606785,16.760883 C16.7963324,16.3958691 16.9841936,15.5872479 16.6171649,14.9548663 C16.2502622,14.3224847 15.4225892,14.105883 14.7869352,14.4708969 L4.69698469,20.4065097 C1.92644083,21.9980557 -5.03987241e-05,25.7376936 -5.03987241e-05,28.9205348 L-5.03987241e-05,63.1315655 C-5.03987241e-05,66.3142813 1.91888102,70.0541699 4.68955088,71.6457159 L34.3446641,88.7511058 C35.730251,89.5469415 37.4446896,89.9446713 39.2228826,89.9446713 C41.0004456,89.9446713 42.7472654,89.5468162 44.1324743,88.7512312 L54.140023,82.9941142 C58.2235796,80.7663008 62.1435923,78.5191838 65.5059432,76.4612173 L73.9743148,71.6457159 C76.7449847,70.0542953 78.9999496,66.3144067 78.9999496,63.1315655 L78.9999496,28.9205348 C78.9999496,25.7376936 76.7410788,21.9979304 73.9702829,20.4065097" id="Fill-1"></path>
            </g>
            <text id="Fantasybetting" font-family="TisaSansPro-BoldItalic, Tisa Sans Pro" font-size="32" font-style="italic" font-weight="bold">
                <tspan x="0" y="130">Fantasybetting</tspan>
            </text>
        </g>
    </g>
</svg>