<?xml version="1.0" encoding="UTF-8"?>
<svg width="135px" height="22px" viewBox="0 0 135 22" version="1.1" xmlns="http://www.w3.org/2000/svg" xmlns:xlink="http://www.w3.org/1999/xlink">
    <!-- Generator: Sketch 42 (36781) - http://www.bohemiancoding.com/sketch -->
    <title>4. Airtasker_primary logo solid reversed_RGB</title>
    <desc>Created with Sketch.</desc>
    <defs></defs>
    <g id="Page-1" stroke="none" stroke-width="1" fill="none" fill-rule="evenodd">
        <g id="4.-Airtasker_primary-logo-solid-reversed_RGB" fill="#FFFFFF">
            <path d="M134.675171,11.2071667 L134.65029,6.92954167 C133.813106,6.96345833 131.29372,7.299875 130.174556,8.63591667 L130.174556,7.217375 L125.499317,7.217375 L125.499317,21.4834583 L130.174556,21.4834583 L130.174556,14.8577917 C130.17686,14.821125 130.181468,14.7835417 130.184232,14.7464167 C130.8643,11.5683333 133.896502,11.2328333 134.675171,11.2071667" id="Fill-6"></path>
            <path d="M92.5441126,11.3776667 C91.9658703,10.828125 91.3613652,10.5508333 90.8397952,10.3005833 C90.3182253,10.05125 89.767628,9.926125 89.1880034,9.926125 C88.7429181,9.926125 88.3328498,10.0122917 87.9559556,10.1855417 C87.5795222,10.3583333 87.3910751,10.6567083 87.3910751,11.0792917 C87.3910751,11.482625 87.598413,11.7709167 88.0140102,11.9441667 C88.4291468,12.1169583 89.1009215,12.3094583 90.028413,12.52075 C90.5688737,12.6357917 91.1148635,12.7994167 91.6654608,13.0107083 C92.2165188,13.2224583 92.7136689,13.5006667 93.1582935,13.8467083 C93.6024573,14.19275 93.9595392,14.6157917 94.2304608,15.115375 C94.5009215,15.6154167 94.6363823,16.2107917 94.6363823,16.902875 C94.6363823,17.80625 94.4525427,18.5702917 94.0853242,19.1945417 C93.7181058,19.8197083 93.2403072,20.323875 92.6510068,20.7084167 C92.0617065,21.0929583 91.4000683,21.3711667 90.6660922,21.5444167 C89.9311945,21.7172083 89.1972184,21.8038333 88.4632423,21.8038333 C87.2846416,21.8038333 86.1304608,21.616375 85.0002389,21.2414583 C83.8700171,20.867 82.9277816,20.3147083 82.1744539,19.5836667 L84.498942,16.6805833 C84.9237543,17.142125 85.7872014,17.6334583 86.405529,17.9405417 C87.0233959,18.2485417 87.6808874,18.4020833 88.3766212,18.4020833 C88.7627304,18.4020833 89.1442321,18.310875 89.5211263,18.128 C89.8980205,17.945125 90.0864676,17.623375 90.0864676,17.1622917 C90.0864676,16.7204583 89.8542491,16.3936667 89.3907338,16.1819167 C88.9267577,15.9710833 88.2024573,15.7497083 87.2169113,15.5191667 C86.7142321,15.4036667 86.2124744,15.250125 85.710256,15.057625 C85.2075768,14.8660417 84.7583447,14.6061667 84.3625597,14.279375 C83.966314,13.9525833 83.6424061,13.5487917 83.3917577,13.0684583 C83.1401877,12.588125 83.0148635,12.0115417 83.0148635,11.3387083 C83.0148635,10.4738333 83.1982423,9.73866667 83.5654608,9.13320833 C83.9322184,8.52775 84.4058703,8.03320833 84.9854949,7.64866667 C85.5651195,7.264125 86.2074061,6.980875 86.9128157,6.798 C87.6177645,6.61558333 88.3185666,6.524375 89.0138396,6.524375 C90.0956826,6.524375 91.1535666,6.69258333 92.1874915,7.02854167 C93.2204949,7.36495833 94.095,7.86958333 94.8100853,8.54195833 L92.5441126,11.3776667" id="Fill-7"></path>
            <path d="M120.073976,12.4982917 C120.048635,11.8103333 119.815495,11.215875 119.374096,10.7135417 C118.905512,10.181875 118.203328,9.915125 117.267543,9.915125 C116.809096,9.915125 116.38843,9.986625 116.006468,10.1291667 C115.624044,10.2717083 115.29,10.4669583 115.003413,10.7135417 C114.716826,10.9610417 114.487372,11.2507083 114.315512,11.583 C114.163464,11.87725 114.070853,12.1825 114.038601,12.4982917 L120.073976,12.4982917 L120.073976,12.4982917 Z M124.403652,14.419625 L124.403652,14.99025 C124.403652,15.1804583 124.393976,15.3605833 124.375085,15.532 L114.028925,15.532 C114.067167,15.93075 114.186502,16.2919167 114.387389,16.6150417 C114.587816,16.938625 114.845836,17.2186667 115.16099,17.4560833 C115.476143,17.6939583 115.829539,17.879125 116.221177,18.0120417 C116.612816,18.1454167 117.018737,18.2114167 117.439403,18.2114167 C118.184437,18.2114167 118.815205,18.0739167 119.330785,17.798 C119.846826,17.523 120.267031,17.166875 120.59186,16.7291667 L123.859044,18.7820417 C123.190034,19.7509583 122.306775,20.497125 121.207884,21.019625 C120.108993,21.5416667 118.834096,21.8038333 117.38227,21.8038333 C116.311945,21.8038333 115.299215,21.637 114.344078,21.3047083 C113.388481,20.9724167 112.55314,20.4879583 111.836672,19.850875 C111.120205,19.21425 110.556246,18.4305 110.145717,17.4987083 C109.734727,16.5678333 109.529693,15.503125 109.529693,14.3055 C109.529693,13.1468333 109.730119,12.0963333 110.131433,11.155375 C110.532287,10.214875 111.076894,9.41645833 111.764795,8.76058333 C112.452696,8.10516667 113.264539,7.596875 114.200785,7.23570833 C115.13657,6.87454167 116.149761,6.69395833 117.238976,6.69395833 C118.289488,6.69395833 119.2543,6.86995833 120.133413,7.22104167 C121.012065,7.57304167 121.766775,8.08133333 122.397543,8.746375 C123.02785,9.411875 123.519471,10.2194583 123.873328,11.1695833 C124.226724,12.1201667 124.403652,13.2036667 124.403652,14.419625 L124.403652,14.419625 Z" id="Fill-8"></path>
            <path d="M67.749727,11.0710417 L67.749727,6.78104167 L63.7213823,6.78104167 L63.7213823,3.586 C63.6163311,1.73983333 62.7464334,0.369875 59.1742321,0.3685 L59.1742321,16.9601667 C59.1742321,17.6857083 59.2696075,18.3429583 59.4331741,18.932375 C59.5967406,19.5213333 59.8648976,20.0291667 60.2376451,20.4554167 C60.6099317,20.8816667 61.1056997,21.208 61.7240273,21.4344167 C62.3418942,21.6608333 63.2758362,21.7745 64.1848976,21.7745 C65.5869625,21.7745 66.5619113,21.583375 67.749727,21.1864583 L67.749727,17.3997083 C67.749727,17.3997083 66.6310239,17.7040417 65.4123379,17.7040417 C64.7755802,17.7040417 64.3351024,17.5454583 64.0895222,17.227375 C63.843942,16.90975 63.7213823,16.4330833 63.7213823,15.7978333 L63.7213823,11.0710417 L67.749727,11.0710417" id="Fill-9"></path>
            <path d="M105.474625,13.8700833 L110.777406,7.189875 L105.130904,7.189875 L100.456587,13.0602083 L100.456587,3.67675 C100.375034,1.78658333 99.5369283,0.372625 95.9140444,0.3685 L95.9140444,21.4839167 L100.456587,21.4839167 L100.456587,14.6662083 L105.82802,21.4839167 L111.508618,21.4839167 L105.474625,13.8700833" id="Fill-10"></path>
            <path d="M81.3156143,21.4701667 L81.3156143,12.023 C81.3156143,7.96125 78.0756143,6.49733333 75.207901,6.49733333 C72.0890785,6.49733333 70.2096758,7.48870833 68.9615017,8.52270833 L71.3325256,11.4555833 C72.1208703,10.725 73.686041,9.97608333 74.7425427,9.97608333 C76.4708191,9.97608333 76.8274403,10.9592083 76.8274403,12.216875 L76.8274403,12.458875 L75.2719454,12.458875 C71.2859898,12.458875 68.8877816,14.1840417 68.8877816,17.2461667 C68.8877816,20.5915417 71.8430375,21.4701667 75.4401195,21.4701667 L81.3156143,21.4701667 L81.3156143,21.4701667 Z M76.8274403,18.5010833 C76.3408874,18.49925 75.7603413,18.51025 75.337372,18.5010833 C74.1702901,18.475875 73.4570478,18.0202917 73.4570478,17.0202083 C73.4570478,16.0215 74.1702901,15.444 75.596314,15.444 L76.8274403,15.444 L76.8274403,18.5010833 L76.8274403,18.5010833 Z" id="Fill-11"></path>
            <path d="M42.6079352,2.957625 C42.6079352,4.4275 43.8284642,5.578375 45.2107167,5.578375 C46.6565529,5.578375 47.8457509,4.4275 47.8457509,2.957625 C47.8457509,1.519375 46.6565529,0.3685 45.2107167,0.3685 C43.8284642,0.3685 42.6079352,1.519375 42.6079352,2.957625" id="Fill-12"></path>
            <path d="M43.0488737,6.81220833 L42.8599659,6.81220833 L42.8599659,21.4834583 L47.5937201,21.4834583 L47.5937201,9.898625 C47.4554949,8.116625 46.5427474,6.81220833 43.0488737,6.81220833" id="Fill-13"></path>
            <path d="M58.1011433,11.2071667 L58.0762628,6.92954167 C57.2390785,6.96345833 54.7196928,7.299875 53.600529,8.63591667 L53.600529,7.217375 L48.9252901,7.217375 L48.9252901,21.4834583 L53.600529,21.4834583 L53.600529,14.8577917 C53.6028328,14.821125 53.6069795,14.7835417 53.6102048,14.7464167 C54.2907338,11.5683333 57.3224744,11.2328333 58.1011433,11.2071667" id="Fill-14"></path>
            <path d="M133.309505,19.333875 L133.04227,19.333875 L133.04227,19.82475 L133.309505,19.82475 C133.463396,19.82475 133.568447,19.7165833 133.568447,19.5795417 C133.568447,19.4420417 133.463396,19.333875 133.309505,19.333875 L133.309505,19.333875 Z M133.568447,20.7070417 L133.244539,20.0621667 L133.04227,20.0621667 L133.04227,20.7070417 L132.751075,20.7070417 L132.751075,19.0799583 L133.345904,19.0799583 C133.645392,19.0799583 133.855495,19.309125 133.855495,19.5795417 C133.855495,19.80825 133.718191,19.958125 133.544027,20.0204583 L133.896041,20.7070417 L133.568447,20.7070417 L133.568447,20.7070417 Z M133.260666,18.6679167 C132.605478,18.6679167 132.087594,19.2092083 132.087594,19.8957917 C132.087594,20.582375 132.605478,21.1232083 133.260666,21.1232083 C133.916314,21.1232083 134.430051,20.582375 134.430051,19.8957917 C134.430051,19.2092083 133.916314,18.6679167 133.260666,18.6679167 L133.260666,18.6679167 Z M133.260666,21.4023333 C132.451587,21.4023333 131.795939,20.728125 131.795939,19.8957917 C131.795939,19.0634583 132.451587,18.38925 133.260666,18.38925 C134.070205,18.38925 134.725392,19.0634583 134.725392,19.8957917 C134.725392,20.728125 134.070205,21.4023333 133.260666,21.4023333 L133.260666,21.4023333 Z" id="Fill-15"></path>
            <path d="M29.6322696,13.2091667 L31.7369795,7.17108333 L33.8412287,13.2091667 L29.6322696,13.2091667 L29.6322696,13.2091667 Z M33.9785324,0.380416667 L29.7188908,0.380416667 L23.2250683,17.5555417 L20.6319625,17.5555417 C18.6032765,17.5555417 16.8303072,17.114625 15.639727,16.3139167 C14.4173549,15.4916667 13.8234471,14.3105417 13.8234471,12.7027083 L13.8234471,10.7195 L11.7390102,10.7195 C11.6533106,10.7195 8.62156997,10.7103333 6.47447099,8.60475 C5.39401024,7.54554167 4.71163823,6.10316667 4.43472696,4.30145833 L19.058959,4.30145833 C21.7170307,4.30145833 22.6956655,5.59120833 23.3070819,6.749875 C23.8189761,7.71970833 23.9963652,8.5855 23.9963652,8.5855 L25.8287713,3.74091667 C25.8287713,3.74091667 24.2792662,0.384541667 19.058959,0.384541667 L0.35616041,0.384541667 L0.35616041,2.343 C0.35616041,6.166875 1.48453925,9.21204167 3.70996587,11.3941667 C5.79348123,13.437875 8.35940273,14.2042083 10.0554266,14.4906667 C10.9032082,18.7875417 14.8670478,21.4724583 20.6319625,21.4724583 L26.6272526,21.4724583 L27.9998294,17.5990833 L35.4768942,17.6073333 L36.8462457,21.4724583 L41.9670307,21.4724583 L33.9785324,0.380416667 L33.9785324,0.380416667 Z" id="Fill-16"></path>
        </g>
    </g>
</svg>