<?xml version="1.0" encoding="UTF-8"?>
<svg width="119px" height="31px" viewBox="0 0 119 31" version="1.1" xmlns="http://www.w3.org/2000/svg" xmlns:xlink="http://www.w3.org/1999/xlink">
    <!-- Generator: Sketch 42 (36781) - http://www.bohemiancoding.com/sketch -->
    <title>Group 24</title>
    <desc>Created with Sketch.</desc>
    <defs></defs>
    <g id="Page-1" stroke="none" stroke-width="1" fill="none" fill-rule="evenodd">
        <g id="Group-24">
            <g id="24ahoy-05">
                <path d="M21.9560313,27.3281034 L14.4825833,27.3281034 C14.4326458,27.3281034 14.3843021,27.3097529 14.3467604,27.2764368 L12.8617396,25.9625 C12.8241979,25.9291839 12.7758542,25.9108333 12.7259167,25.9108333 L7.59421875,25.9108333 C7.55596875,25.9108333 7.51860417,25.921523 7.48602083,25.9418333 L6.92519792,26.2903161 C6.89544792,26.3088448 6.87083333,26.3346782 6.85365625,26.3656782 L5.87898958,28.1237701 C5.84127083,28.1843448 5.77539583,28.221046 5.70438542,28.221046 L0.540104167,28.221046 C0.484322917,28.221046 0.431197917,28.2434943 0.392416667,28.2839368 C0.29803125,28.3821034 0.12590625,28.5729138 0.0942083333,28.6869368 C0.0444479167,28.8649195 0.26775,29.4052816 0.26775,29.4052816 L1.14626042,30.8036667 C1.18397917,30.8637069 1.24967708,30.9000517 1.32033333,30.9000517 L18.4331354,30.9000517 C18.4740417,30.9000517 18.5138854,30.8879368 18.5478854,30.8647759 C18.7731354,30.712092 19.5358333,30.0785517 19.9714583,29.672523 C20.3838854,29.2882299 22.1618021,27.5415402 22.1618021,27.5415402 L22.1618021,27.5351264 C22.1618021,27.4207471 22.0697188,27.3281034 21.9560313,27.3281034" id="Fill-1" fill="#FFFFFF"></path>
                <path id="Stroke-2" stroke="#FFFFFF" stroke-width="0.5" stroke-linecap="round"></path>
                <path d="M12.6201979,0.615724138 L12.0448542,0.615724138 C11.9811042,0.615724138 11.9290417,0.563344828 11.9290417,0.499385057 C11.9290417,0.435247126 11.9811042,0.382867816 12.0448542,0.382867816 L12.6201979,0.382867816 C12.6837708,0.382867816 12.7358333,0.435247126 12.7358333,0.499385057 C12.7358333,0.563344828 12.6837708,0.615724138 12.6201979,0.615724138" id="Fill-3" fill="#FFFFFF"></path>
                <path d="M12.6201979,1.78054023 L12.0448542,1.78054023 C11.9811042,1.78054023 11.9290417,1.72816092 11.9290417,1.66402299 C11.9290417,1.60006322 11.9811042,1.54768391 12.0448542,1.54768391 L12.6201979,1.54768391 C12.6837708,1.54768391 12.7358333,1.60006322 12.7358333,1.66402299 C12.7358333,1.72816092 12.6837708,1.78054023 12.6201979,1.78054023" id="Fill-4" fill="#FFFFFF"></path>
                <path d="M1.74710417,25.0373103 L12.3853854,25.0373103 C12.3853854,25.0373103 12.5139479,-2.56801149 12.3324375,3.10071264 C12.2513333,5.63772414 10.7827812,10.4361322 8.75429167,14.7763103 C6.25051042,20.1337874 3.09789583,24.881954 3.09789583,24.881954" id="Fill-5" fill="#FFFFFF"></path>
                <path d="M1.74710417,25.0373103 L12.3853854,25.0373103 C12.3853854,25.0373103 12.5139479,-2.56801149 12.3324375,3.10071264 C12.2513333,5.63772414 10.7827812,10.4361322 8.75429167,14.7763103 C6.25051042,20.1337874 3.09789583,24.881954 3.09789583,24.881954" id="Stroke-6" stroke="#FFFFFF" stroke-width="0.5" stroke-linecap="round"></path>
                <path d="M2.88840625,25.2897644 L1.47705208,28.221046" id="Stroke-7" stroke="#FFFFFF" stroke-width="0.5" stroke-linecap="round"></path>
                <path d="M13.3681979,1.77412644 C14.0030417,2.69005172 13.7533542,24.2918851 13.6796875,24.5263448 C13.4377917,25.2972471 24.7126875,24.9658678 25.0413542,24.870908 C26.0401042,24.5822874 15.15125,1.91772414 14.4089167,1.74152299 C14.1372708,1.67702874 13.1610104,1.47552874 13.3681979,1.77412644" id="Fill-8" fill="#FFFFFF"></path>
                <path d="M13.3681979,1.77412644 C14.0030417,2.69005172 13.7533542,24.2918851 13.6796875,24.5263448 C13.4377917,25.2972471 24.7126875,24.9658678 25.0413542,24.870908 C26.0401042,24.5822874 15.15125,1.91772414 14.4089167,1.74152299 C14.1372708,1.67702874 13.1610104,1.47552874 13.3681979,1.77412644 L13.3681979,1.77412644 Z" id="Stroke-9" stroke="#FFFFFF" stroke-width="0.5"></path>
                <path d="M21.8191458,24.881954 L20.4182396,27.408454" id="Stroke-10" stroke="#FFFFFF" stroke-width="0.5" stroke-linecap="round"></path>
                <path d="M11.9995208,1.92734483 L11.9995208,0.220206897 C11.9995208,0.122574713 11.9116875,0.0489942529 11.8164167,0.0675229885 C11.1888333,0.188494253 9.74082292,0.469632184 9.03355208,0.453063218 C8.26182292,0.435247126 7.04897917,0.767873563 6.51755208,1.07288506 C6.44795833,1.11297126 6.47717708,1.21968966 6.55721875,1.21790805 C7.16178125,1.20454598 8.42934375,1.6315977 9.14936458,1.88975287 C10.0388542,2.20848276 11.3645,2.1781954 11.8748542,2.07985057 C11.9474583,2.06577586 11.9995208,2.00199425 11.9995208,1.92734483" id="Fill-11" fill="#FFFFFF"></path>
                <polyline id="Fill-12" fill="#FFFFFF" points="50.7719167 30.1535575 50.7719167 19.6776954 39.8281667 19.6776954 39.8281667 30.1535575 34.9408438 30.1535575 34.9408438 4.89033908 39.8281667 4.89033908 39.8281667 15.0455115 50.7719167 15.0455115 50.7719167 4.89033908 55.6950104 4.89033908 55.6950104 30.1535575 50.7719167 30.1535575"></polyline>
                <path d="M70.3213854,17.5041322 C70.3213854,18.9294195 70.5455729,20.171023 70.9943021,21.2276954 C71.4425,22.2850805 72.0390938,23.1578908 72.7828438,23.8468391 C73.5265938,24.5359655 74.364375,25.0526322 75.2974271,25.3966609 C76.2299479,25.7412241 77.18,25.9133276 78.1484688,25.9133276 C79.1162292,25.9133276 80.0726563,25.7412241 81.0172188,25.3966609 C81.96125,25.0526322 82.8057604,24.5359655 83.5495104,23.8468391 C84.2932604,23.1578908 84.8893229,22.2850805 85.3380521,21.2276954 C85.78625,20.171023 86.0109688,18.9294195 86.0109688,17.5041322 C86.0109688,16.0788448 85.78625,14.8377759 85.3380521,13.780569 C84.8893229,12.7238966 84.2932604,11.850908 83.5495104,11.1616034 C82.8057604,10.4728333 81.96125,9.95616667 81.0172188,9.61160345 C80.0726563,9.26757471 79.1162292,9.09493678 78.1484688,9.09493678 C77.18,9.09493678 76.2299479,9.26757471 75.2974271,9.61160345 C74.364375,9.95616667 73.5265938,10.4728333 72.7828438,11.1616034 C72.0390938,11.850908 71.4425,12.7238966 70.9943021,13.780569 C70.5455729,14.8377759 70.3213854,16.0788448 70.3213854,17.5041322 L70.3213854,17.5041322 Z M65.2568021,17.5397644 C65.2568021,15.4969713 65.6109688,13.662092 66.3193021,12.034592 C67.0276354,10.4078046 67.9716667,9.02367241 69.1526354,7.88344253 C70.3330729,6.74321264 71.7026354,5.87022414 73.2609688,5.26447701 C74.8193021,4.65872989 76.4484688,4.35585632 78.1484688,4.35585632 C79.8484688,4.35585632 81.4833021,4.65872989 83.0536771,5.26447701 C84.6236979,5.87022414 85.9989271,6.74321264 87.1797188,7.88344253 C88.3601563,9.02367241 89.3047188,10.4078046 90.0130521,12.034592 C90.7213854,13.662092 91.0755521,15.4969713 91.0755521,17.5397644 C91.0755521,19.583092 90.7213854,21.412092 90.0130521,23.0271207 C89.3047188,24.6428621 88.3601563,26.0202241 87.1797188,27.160454 C85.9989271,28.3008621 84.6236979,29.1736724 83.0536771,29.7794195 C81.4833021,30.3851667 79.8484688,30.6880402 78.1484688,30.6880402 C76.4484688,30.6880402 74.8193021,30.3851667 73.2609688,29.7794195 C71.7026354,29.1736724 70.3330729,28.3008621 69.1526354,27.160454 C67.9716667,26.0202241 67.0276354,24.6428621 66.3193021,23.0271207 C65.6109688,21.412092 65.2568021,19.583092 65.2568021,17.5397644 L65.2568021,17.5397644 Z" id="Fill-13" fill="#FFFFFF"></path>
                <polyline id="Fill-14" fill="#FFFFFF" points="96.4236458 4.89033908 102.161146 4.89033908 107.792396 14.9029828 113.423646 4.89033908 118.913229 4.89033908 110.059062 19.5351667 110.059062 30.1535575 105.171562 30.1535575 105.171562 19.5351667 96.4236458 4.89033908"></polyline>
            </g>
        </g>
    </g>
</svg>