<?xml version="1.0" encoding="UTF-8"?>
<svg width="52px" height="51px" viewBox="0 0 52 51" version="1.1" xmlns="http://www.w3.org/2000/svg" xmlns:xlink="http://www.w3.org/1999/xlink">
    <!-- Generator: Sketch 42 (36781) - http://www.bohemiancoding.com/sketch -->
    <title>Clip 2</title>
    <desc>Created with Sketch.</desc>
    <defs>
        <path d="M25.2964882,51 C11.2622402,50.6342976 -5.68434189e-14,39.3595561 -5.68434189e-14,25.5045779 C-5.68434189e-14,11.4188374 11.6405219,0 26,0 C40.3594781,0 52,11.4188374 52,25.5045779 C52,39.3595561 40.7377598,50.6342976 26.7035118,51 L25.2964882,51 L25.2964882,51 L25.2964882,51 Z M39.3210024,39.6869109 L28.9783883,39.6869109 C28.3599954,39.6869109 27.8447178,39.2221065 27.7931601,38.6175251 L27.0171054,29.5179793 C26.960915,28.9173653 26.4474307,28.4577491 25.8326244,28.4577491 L25.7954133,28.4577491 C25.1740315,28.4577491 24.6574089,28.9269788 24.6095873,29.5346121 L23.9853661,38.9347701 C23.9228992,39.3663088 23.5464536,39.6869109 23.1021612,39.6869109 L12.6769054,39.6869109 C12.1460858,39.6869109 11.4354868,39.2350771 11.4928727,38.7174748 L12.7897345,27.0810369 C12.8539947,26.5056011 13.3493965,26.0697898 13.9395448,26.0697898 L14.2363375,26.0697898 L14.8511438,26.0696372 L16.214358,17.2862682 C16.2587424,17.0013734 16.8152661,16.7909448 17.10907,16.7909448 L17.4064605,16.7909448 C17.7349351,16.7909448 18.0010921,16.5297022 18.0010921,16.2075741 L18.0010921,12.4888336 C18.0010921,11.8444249 18.5335556,11.3220922 19.1905047,11.3220922 L23.5080469,11.3220922 C24.1648465,11.3220922 24.69731,11.8444249 24.69731,12.4888336 L24.69731,22.4987613 C24.69731,23.3041578 25.2980687,23.5950039 25.7401196,23.601718 C26.1573629,23.608127 26.766341,23.3041578 26.766341,22.4987613 L26.766341,12.4888336 C26.766341,11.8444249 27.2988045,11.3220922 27.9556041,11.3220922 L32.1988734,11.3220922 C32.8556731,11.3220922 33.388286,11.8444249 33.388286,12.4888336 L33.388286,16.2075741 C33.2953328,16.9185143 34.0571905,16.7909448 34.0571905,16.7909448 L34.3145304,16.7909448 C34.6178986,16.7909448 34.8810668,16.9963377 34.9492126,17.2861156 L37.2347856,26.0514784 L38.0749511,26.0514784 C38.6691344,26.0514784 39.1723072,26.7734054 39.2531555,27.3508249 L40.5005518,38.3715419 C40.5920106,39.0692063 40.0380274,39.6869109 39.3210024,39.6869109 L39.3210024,39.6869109 Z" id="path-1"></path>
    </defs>
    <g id="Page-1" stroke="none" stroke-width="1" fill="none" fill-rule="evenodd">
        <mask id="mask-2" fill="white">
            <use xlink:href="#path-1"></use>
        </mask>
        <use id="Clip-2" fill="#FFFFFF" xlink:href="#path-1"></use>
    </g>
</svg>