<?xml version="1.0" encoding="UTF-8"?>
<svg width="42px" height="42px" viewBox="0 0 42 42" version="1.1" xmlns="http://www.w3.org/2000/svg" xmlns:xlink="http://www.w3.org/1999/xlink">
    <!-- Generator: Sketch 42 (36781) - http://www.bohemiancoding.com/sketch -->
    <title>icon-3</title>
    <desc>Created with Sketch.</desc>
    <defs></defs>
    <g id="Page-1" stroke="none" stroke-width="1" fill="none" fill-rule="evenodd">
        <g id="icon-3" transform="translate(1.000000, 1.000000)" stroke-width="2">
            <path d="M40,20 C40,31.046 31.046,40 20,40 C8.954,40 0,31.046 0,20 C0,8.954 8.954,0 20,0 C31.046,0 40,8.954 40,20 Z" id="Stroke-1" stroke="#007FAD"></path>
            <path d="M22.4537508,9.90772409 L20.224736,18.9970644 L27.1473789,18.9970644 C28.2696455,18.9970644 28.9602169,20.2474688 28.3782747,21.2253585 L20.8109105,32.2913301 C20.0533276,33.5640246 18.1318604,33.0103665 18.140325,31.521242 L20.3940283,22.614537 L13.4213032,22.5433523 C12.369575,22.5282526 11.6881736,21.4065557 12.1438519,20.4401706 L19.7161538,9.27209583 C20.3799206,7.86494141 22.4537508,8.34669586 22.4537508,9.90772409 Z" id="Page-1" stroke="#037FAD" stroke-linecap="round" stroke-linejoin="round"></path>
        </g>
    </g>
</svg>